<svg width="48" height="48" viewBox="0 0 48 48" fill="none" xmlns="http://www.w3.org/2000/svg">
<mask id="mask0_331_2178" style="mask-type:alpha" maskUnits="userSpaceOnUse" x="0" y="0" width="48" height="48">
<rect width="48" height="48" fill="#D9D9D9"/>
</mask>
<g mask="url(#mask0_331_2178)">
<path d="M9.03177 37.3701C11.1791 35.7766 13.5184 34.5183 16.0496 33.5952C18.5807 32.6721 21.2747 32.2106 24.1313 32.2106C26.988 32.2106 29.682 32.6721 32.2131 33.5952C34.7443 34.5183 37.0835 35.7766 39.2309 37.3701C40.8018 35.6438 42.0463 33.6454 42.9646 31.375C43.8828 29.1045 44.3419 26.6462 44.3419 24C44.3419 18.4 42.3735 13.6315 38.4366 9.6947C34.4998 5.75785 29.7314 3.78942 24.1313 3.78942C18.5313 3.78942 13.7629 5.75785 9.82605 9.6947C5.88919 13.6315 3.92077 18.4 3.92077 24C3.92077 26.6462 4.37988 29.1045 5.29812 31.375C6.21635 33.6454 7.4609 35.6438 9.03177 37.3701ZM24.1313 25.8947C21.8253 25.8947 19.8803 25.1028 18.2966 23.519C16.7128 21.9352 15.9209 19.9903 15.9209 17.6842C15.9209 15.3781 16.7128 13.4332 18.2966 11.8494C19.8803 10.2656 21.8253 9.47371 24.1313 9.47371C26.4374 9.47371 28.3823 10.2656 29.9661 11.8494C31.5499 13.4332 32.3418 15.3781 32.3418 17.6842C32.3418 19.9903 31.5499 21.9352 29.9661 23.519C28.3823 25.1028 26.4374 25.8947 24.1313 25.8947ZM24.1313 48C20.7985 48 17.6722 47.3733 14.7524 46.1198C11.8326 44.8664 9.29251 43.1595 7.13217 40.9992C4.97187 38.8388 3.265 36.2987 2.01156 33.3789C0.758086 30.4591 0.131348 27.3328 0.131348 24C0.131348 20.6672 0.758086 17.5409 2.01156 14.6211C3.265 11.7013 4.97187 9.16116 7.13217 7.00082C9.29251 4.84052 11.8326 3.13365 14.7524 1.88021C17.6722 0.626738 20.7985 0 24.1313 0C27.4642 0 30.5905 0.626738 33.5103 1.88021C36.4301 3.13365 38.9702 4.84052 41.1305 7.00082C43.2908 9.16116 44.9977 11.7013 46.2511 14.6211C47.5046 17.5409 48.1313 20.6672 48.1313 24C48.1313 27.3328 47.5046 30.4591 46.2511 33.3789C44.9977 36.2987 43.2908 38.8388 41.1305 40.9992C38.9702 43.1595 36.4301 44.8664 33.5103 46.1198C30.5905 47.3733 27.4642 48 24.1313 48Z" fill="#1C1B1F"/>
</g>
</svg>
