<svg width="24" height="25" viewBox="0 0 24 25" fill="none" xmlns="http://www.w3.org/2000/svg">
<mask id="mask0_331_2191" style="mask-type:alpha" maskUnits="userSpaceOnUse" x="0" y="0" width="24" height="25">
<rect y="0.5" width="24" height="24" fill="#D9D9D9"/>
</mask>
<g mask="url(#mask0_331_2191)">
<path d="M15.1248 21.6L6.6998 13.2C6.5998 13.1 6.52897 12.9917 6.4873 12.875C6.44564 12.7583 6.4248 12.6333 6.4248 12.5C6.4248 12.3667 6.44564 12.2417 6.4873 12.125C6.52897 12.0083 6.5998 11.9 6.6998 11.8L15.1248 3.37499C15.3581 3.14166 15.6498 3.02499 15.9998 3.02499C16.3498 3.02499 16.6498 3.14999 16.8998 3.39999C17.1498 3.64999 17.2748 3.94166 17.2748 4.27499C17.2748 4.60833 17.1498 4.89999 16.8998 5.14999L9.5498 12.5L16.8998 19.85C17.1331 20.0833 17.2498 20.3708 17.2498 20.7125C17.2498 21.0542 17.1248 21.35 16.8748 21.6C16.6248 21.85 16.3331 21.975 15.9998 21.975C15.6665 21.975 15.3748 21.85 15.1248 21.6Z" fill="#1C1B1F"/>
</g>
</svg>
