<svg width="28" height="28" viewBox="0 0 28 28" fill="none" xmlns="http://www.w3.org/2000/svg">
<path d="M23.2668 27.6044C20.3629 27.6044 17.5353 26.9575 14.7838 25.6638C12.0324 24.3701 9.59336 22.6599 7.46679 20.5333C5.34021 18.4068 3.63006 15.9677 2.33635 13.2163C1.04262 10.4649 0.395752 7.6372 0.395752 4.73333C0.395752 4.25893 0.553008 3.86449 0.867519 3.55C1.18201 3.23551 1.57645 3.07827 2.05085 3.07827H7.44289C7.87622 3.07827 8.24699 3.20218 8.55519 3.45C8.86341 3.69782 9.05569 4.03043 9.13202 4.44783L9.99072 8.9471C10.0564 9.34324 10.0509 9.69831 9.97405 10.0123C9.89723 10.3263 9.7296 10.6046 9.47115 10.8471L6.21535 14.05C7.10617 15.5544 8.21173 16.9653 9.53202 18.283C10.8523 19.6006 12.3011 20.7413 13.8784 21.7051L17.0675 18.5398C17.326 18.2867 17.6429 18.1035 18.0182 17.9902C18.3936 17.8769 18.7767 17.8558 19.1675 17.9268L23.5523 18.8362C23.975 18.9348 24.3089 19.1286 24.5541 19.4177C24.7993 19.7069 24.9219 20.0628 24.9219 20.4855V25.9413C24.9219 26.4157 24.7646 26.8115 24.4501 27.1286C24.1356 27.4458 23.7412 27.6044 23.2668 27.6044ZM20.7306 14.1435C18.8277 14.1435 17.2063 13.4735 15.8664 12.1337C14.5266 10.7938 13.8567 9.17246 13.8567 7.26957C13.8567 5.36666 14.5266 3.74528 15.8664 2.40543C17.2063 1.06557 18.8277 0.395634 20.7306 0.395634C22.6335 0.395634 24.2548 1.06557 25.5947 2.40543C26.9346 3.74528 27.6045 5.36666 27.6045 7.26957C27.6045 9.17246 26.9346 10.7938 25.5947 12.1337C24.2548 13.4735 22.6335 14.1435 20.7306 14.1435ZM19.9204 11.413H21.5407V6.0797H19.9204V11.413ZM20.7306 4.74637C20.9508 4.74637 21.1409 4.66642 21.3009 4.50653C21.4608 4.34662 21.5407 4.15652 21.5407 3.93623C21.5407 3.71595 21.4608 3.52584 21.3009 3.36593C21.1409 3.20602 20.9508 3.12607 20.7306 3.12607C20.5103 3.12607 20.3202 3.20602 20.1603 3.36593C20.0004 3.52584 19.9204 3.71595 19.9204 3.93623C19.9204 4.15652 20.0004 4.34662 20.1603 4.50653C20.3202 4.66642 20.5103 4.74637 20.7306 4.74637Z" fill="#191008"/>
</svg>
