<svg width="32" height="32" viewBox="0 0 32 32" fill="none" xmlns="http://www.w3.org/2000/svg">
<mask id="mask0_335_1825" style="mask-type:alpha" maskUnits="userSpaceOnUse" x="0" y="0" width="32" height="32">
<rect width="32" height="32" fill="#D9D9D9"/>
</mask>
<g mask="url(#mask0_335_1825)">
<path d="M15.6335 29.7957L15.364 25.5646L15.0067 25.5566C11.8193 25.4662 9.1269 24.2932 6.92955 22.0374C4.73221 19.7816 3.63354 17.0573 3.63354 13.8646C3.63354 10.608 4.76941 7.84656 7.04115 5.58014C9.31288 3.31372 12.077 2.1805 15.3335 2.1805C16.9591 2.1805 18.4779 2.48557 19.8897 3.0957C21.3016 3.70586 22.5401 4.54355 23.6053 5.60877C24.6705 6.67397 25.5082 7.91249 26.1183 9.32434C26.7285 10.7362 27.0335 12.2549 27.0335 13.8805C27.0335 15.6269 26.7387 17.2946 26.1491 18.8838C25.5595 20.4729 24.7553 21.9456 23.7364 23.3019C22.7176 24.6582 21.5143 25.8856 20.1266 26.9841C18.739 28.0827 17.2413 29.0199 15.6335 29.7957ZM15.3082 21.2602C15.7178 21.2602 16.0653 21.1176 16.3506 20.8323C16.6358 20.547 16.7785 20.1996 16.7785 19.7899C16.7785 19.3803 16.6358 19.0328 16.3506 18.7475C16.0653 18.4623 15.7178 18.3196 15.3082 18.3196C14.8985 18.3196 14.551 18.4623 14.2658 18.7475C13.9805 19.0328 13.8379 19.3803 13.8379 19.7899C13.8379 20.1996 13.9805 20.547 14.2658 20.8323C14.551 21.1176 14.8985 21.2602 15.3082 21.2602ZM14.2379 16.9551H16.4292C16.4292 16.2832 16.4999 15.8059 16.6411 15.5233C16.7825 15.2406 17.1927 14.7597 17.8719 14.0805C18.2826 13.6699 18.6225 13.2312 18.8919 12.7646C19.1612 12.2979 19.2959 11.7873 19.2959 11.2327C19.2959 10.0674 18.9099 9.1922 18.1379 8.60694C17.3659 8.02167 16.4364 7.72904 15.3495 7.72904C14.3505 7.72904 13.503 8.0172 12.8071 8.59354C12.1112 9.16987 11.6246 9.86818 11.3473 10.6885L13.3973 11.4935C13.5137 11.1104 13.7235 10.7316 14.0267 10.3569C14.3298 9.98232 14.7654 9.795 15.3335 9.795C15.9017 9.795 16.3277 9.95104 16.6118 10.2631C16.8959 10.5752 17.0379 10.9206 17.0379 11.2993C17.0379 11.6559 16.9254 11.9828 16.7006 12.2801C16.4757 12.5775 16.221 12.8684 15.9364 13.153C15.1534 13.8303 14.6745 14.374 14.4998 14.7841C14.3252 15.1943 14.2379 15.9179 14.2379 16.9551Z" fill="#191008"/>
</g>
</svg>
