<svg width="66" height="14" viewBox="0 0 66 14" fill="none" xmlns="http://www.w3.org/2000/svg">
<g clip-path="url(#clip0_278_2158)">
<path d="M61.9875 8.025L1.125 7.7875C0.8 7.7875 0.53125 7.68125 0.31875 7.46875C0.10625 7.25625 0 7.1125 0 6.7875C0 6.4625 0.10625 6.2767 0.31875 6.0642C0.53125 5.8517 0.8 5.7875 1.125 5.7875L62.025 6L58.8 2.875C58.6 2.675 58.5 2.425 58.5 2.125C58.5 1.825 58.6125 1.5625 58.8375 1.3375C59.0625 1.1125 59.325 1 59.625 1C59.925 1 60.1875 1.1125 60.4125 1.3375L65.1624 6.2125C65.2874 6.3375 65.3749 6.4625 65.4249 6.5875C65.4749 6.7125 65.4999 6.85 65.4999 7C65.4999 7.15 65.4749 7.2875 65.4249 7.4125C65.3749 7.5375 65.2874 7.6625 65.1624 7.7875L60.4125 13.1125C60.1625 13.3625 59.8938 13.4812 59.6063 13.4688C59.3188 13.4563 59.0625 13.3375 58.8375 13.1125C58.6125 12.8875 58.5 12.6188 58.5 12.3063C58.5 11.9938 58.6 11.7375 58.8 11.5375L61.9875 8.025Z" fill="#191008"/>
</g>
<defs>
<clipPath id="clip0_278_2158">
<rect width="66" height="14" fill="white"/>
</clipPath>
</defs>
</svg>
