<svg width="24" height="24" viewBox="0 0 24 24" fill="none" xmlns="http://www.w3.org/2000/svg">
<g clip-path="url(#clip0_266_563)">
<path d="M6.60936 0C7.01112 0.04656 7.41336 0.08808 7.81416 0.1416C8.01456 0.16824 8.21352 0.21144 8.41104 0.25584C9.73584 0.55368 10.5242 1.3896 10.7674 2.7072C11.1014 4.51848 11.1168 6.34488 10.7875 8.1552C10.4928 9.77424 9.71016 10.5379 8.088 10.807C6.33744 11.0976 4.57296 11.1058 2.82288 10.7868C1.26288 10.5019 0.47472 9.6828 0.19344 8.11368C0.12 7.70016 0.09192 7.27824 0.04152 6.8604C0.0312 6.7764 0.01392 6.6924 0 6.60936V4.40616C0.01392 4.31544 0.03072 4.22472 0.04176 4.13352C0.09216 3.71544 0.1212 3.29352 0.19464 2.87952C0.41064 1.6644 0.99696 0.73704 2.24352 0.35952C2.54935 0.266426 2.8612 0.194417 3.17688 0.144C3.58488 0.0792 3.99624 0.04608 4.40616 0H6.60936Z" fill="#FF8000"/>
<path d="M0 17.3906C0.0456 16.9967 0.08304 16.6014 0.13992 16.209C0.178354 15.9473 0.231235 15.6878 0.29832 15.4319C0.62136 14.1897 1.45032 13.4704 2.68416 13.2395C4.542 12.8915 6.4116 12.8958 8.27064 13.2285C9.70056 13.4843 10.541 14.3694 10.7846 15.7965C11.0918 17.5965 11.1079 19.403 10.781 21.1989C10.499 22.7486 9.67704 23.5288 8.11488 23.8058C7.602 23.897 7.08024 23.937 6.56256 24.0006H4.40616C4.31472 23.9865 4.22328 23.9716 4.1316 23.9582C3.5844 23.8778 3.0276 23.8341 2.49144 23.7102C1.392 23.4563 0.65256 22.7858 0.336 21.6873C0.252296 21.395 0.187364 21.0977 0.1416 20.7971C0.0804 20.398 0.0456 19.995 0 19.5938V17.3906Z" fill="#FF8000"/>
<path d="M17.4374 24.0001C17.0275 23.9543 16.6157 23.9204 16.2079 23.8585C15.8998 23.8122 15.5952 23.7455 15.2959 23.6588C14.0854 23.3041 13.4587 22.4401 13.2182 21.2459C12.9778 20.0516 12.9648 18.8403 13.0262 17.6315C13.0577 16.9548 13.1366 16.2811 13.2624 15.6155C13.5264 14.2475 14.4103 13.4876 15.7522 13.2193C16.9476 12.9793 18.1577 12.9606 19.3661 13.0287C20.1022 13.0703 20.844 13.155 21.5633 13.3119C22.7237 13.5651 23.4353 14.3319 23.7082 15.4789C23.8315 15.9999 23.8762 16.5399 23.9549 17.0713C23.9729 17.1932 23.9854 17.3161 24.0005 17.4385V19.5949C23.9858 19.6943 23.9702 19.7934 23.9568 19.893C23.8922 20.373 23.856 20.8566 23.7583 21.3287C23.5337 22.4161 22.9618 23.2386 21.8659 23.6034C21.525 23.7138 21.1762 23.7981 20.8224 23.8554C20.4163 23.924 20.0038 23.9543 19.5943 24.0011L17.4374 24.0001Z" fill="#FF8000"/>
<path d="M19.4998 6.50412C19.4998 7.35924 19.5049 8.17812 19.4979 8.997C19.4941 9.41772 19.2937 9.73236 18.9099 9.90588C18.5456 10.0708 18.1911 10.0242 17.875 9.777C17.6033 9.56436 17.4965 9.2706 17.4965 8.93244C17.4965 8.22156 17.4965 7.51084 17.4965 6.80028V6.51564C17.4034 6.51156 17.3211 6.5046 17.239 6.5046C16.5128 6.5046 15.7863 6.50868 15.0601 6.50244C14.4841 6.4974 14.0521 6.12348 14.0108 5.60628C13.9606 4.9914 14.3931 4.50708 15.0111 4.50228C15.7453 4.4958 16.4794 4.5006 17.2136 4.5006H17.4848C17.4893 4.39932 17.4963 4.31652 17.4963 4.23348C17.4963 3.49932 17.4915 2.76516 17.4992 2.031C17.5042 1.54788 17.7915 1.16388 18.2158 1.04124C18.6401 0.918598 19.1187 1.07868 19.3337 1.46412C19.4326 1.64822 19.4871 1.85285 19.4929 2.06172C19.5116 2.7798 19.5003 3.4986 19.5003 4.21716V4.50012H19.7657C20.492 4.50012 21.2185 4.49796 21.9447 4.50012C22.549 4.50228 22.9945 4.92252 23.0007 5.49012C23.0081 6.05028 22.5625 6.49308 21.9615 6.50076C21.2353 6.51012 20.509 6.50316 19.7825 6.5034L19.4998 6.50412Z" fill="#302920"/>
</g>
<defs>
<clipPath id="clip0_266_563">
<rect width="24" height="24" fill="white"/>
</clipPath>
</defs>
</svg>
