<svg width="205" height="100" viewBox="0 0 205 100" fill="none" xmlns="http://www.w3.org/2000/svg">
<path d="M16 71.6242C16 71.6242 21.0439 94.9345 71.6041 74.819C94.1472 65.8522 25.9054 50.4438 57.6271 31.4855C106.607 2.2139 106 29.0267 106 29.0267" stroke="#FF8000" stroke-width="1.5" stroke-miterlimit="10" stroke-linecap="round" stroke-dasharray="8 8"/>
<path d="M16.9718 28.4066C12.4706 28.4066 8.15376 30.1618 4.97093 33.286C1.7881 36.4103 0 40.6478 0 45.0662C0 54.269 9.8546 71.3992 15.8769 71.3992C21.3516 71.3992 33.9436 54.269 33.9436 45.0662C33.9436 40.6478 32.1555 36.4103 28.9727 33.286C25.7899 30.1618 21.473 28.4066 16.9718 28.4066ZM15.8769 67.0999C13.1395 67.0999 4.37982 51.8948 4.37982 45.0662C4.37982 43.443 4.70552 41.8357 5.33833 40.3361C5.97114 38.8364 6.89865 37.4739 8.06793 36.3261C9.2372 35.1783 10.6253 34.2679 12.1531 33.6467C13.6808 33.0255 15.3182 32.7058 16.9718 32.7058C18.6254 32.7058 20.2628 33.0255 21.7906 33.6467C23.3183 34.2679 24.7064 35.1783 25.8757 36.3261C27.045 37.4739 27.9725 38.8364 28.6053 40.3361C29.2381 41.8357 29.5638 43.443 29.5638 45.0662C29.5638 51.8948 18.6142 67.0999 15.8769 67.0999Z" fill="#FF8000"/>
<path d="M16.9716 51.5151C20.6 51.5151 23.5413 48.6278 23.5413 45.0662C23.5413 41.5046 20.6 38.6173 16.9716 38.6173C13.3432 38.6173 10.4019 41.5046 10.4019 45.0662C10.4019 48.6278 13.3432 51.5151 16.9716 51.5151Z" fill="#FF8000"/>
<path d="M105.967 36.0497C105.967 36.0497 79.5668 87.2825 128.961 82.5055C178.356 77.7286 135.497 42.8568 149.522 26.9735C163.757 10.8512 197.331 14.0551 192.218 38.1918" stroke="#FF8000" stroke-width="1.5" stroke-miterlimit="10" stroke-linecap="round" stroke-dasharray="8 8"/>
<path d="M46.1681 38.1778H49.9129C50.171 38.1778 50.4186 38.2785 50.6011 38.4576C50.7836 38.6368 50.8862 38.8798 50.8862 39.1332V70.5441C50.8862 70.7975 50.7836 71.0405 50.6011 71.2196C50.4186 71.3988 50.171 71.4995 49.9129 71.4995H46.1681C45.91 71.4995 45.6624 71.3988 45.4799 71.2196C45.2974 71.0405 45.1948 70.7975 45.1948 70.5441V39.1332C45.1948 38.8798 45.2974 38.6368 45.4799 38.4576C45.6624 38.2785 45.91 38.1778 46.1681 38.1778ZM65.9625 51.3144C65.9625 48.6632 65.3136 46.6091 64.0159 45.1522C62.7182 43.6952 60.86 42.9675 58.4413 42.9691C56.0422 42.9691 54.1832 43.6164 52.8644 44.9109C51.5456 46.2055 50.8862 48.0366 50.8862 50.4044L50.2292 44.2708C50.2099 44.0832 50.2462 43.8941 50.3338 43.7262C51.4077 41.7374 52.7865 40.2454 54.4703 39.2502C56.2849 38.1957 58.3622 37.6566 60.4707 37.693C62.826 37.693 64.8424 38.2224 66.5197 39.2813C68.197 40.3402 69.4728 41.8863 70.3472 43.9197C71.2183 45.9547 71.6538 48.4053 71.6538 51.2714V70.5441C71.6538 70.7975 71.5513 71.0405 71.3687 71.2196C71.1862 71.3988 70.9387 71.4995 70.6805 71.4995H66.9358C66.6776 71.4995 66.4301 71.3988 66.2475 71.2196C66.065 71.0405 65.9625 70.7975 65.9625 70.5441V51.3144ZM86.7277 51.3144C86.7277 48.6632 86.0577 46.6091 84.7178 45.1522C83.3779 43.6952 81.4987 42.9651 79.08 42.9619C76.7052 42.9619 74.8738 43.6681 73.5858 45.0805C72.2978 46.4929 71.6546 48.4833 71.6562 51.0517L70.0771 45.766C70.0124 45.5506 70.027 45.3198 70.1184 45.114C71.1712 42.7876 72.5849 40.9843 74.3596 39.704C76.2189 38.3621 78.4759 37.6572 80.7833 37.6977C83.2263 37.6977 85.3188 38.2272 87.061 39.2861C88.8461 40.3919 90.2397 42.0119 91.0516 43.9245C91.9664 45.9595 92.4247 48.4101 92.4263 51.2762V70.5441C92.4263 70.7975 92.3238 71.0405 92.1413 71.2196C91.9587 71.3988 91.7112 71.4995 91.453 71.4995H87.701C87.4429 71.4995 87.1953 71.3988 87.0128 71.2196C86.8302 71.0405 86.7277 70.7975 86.7277 70.5441V51.3144Z" fill="#191008"/>
<path d="M104.021 38.1778H107.763C108.021 38.1778 108.269 38.2785 108.451 38.4576C108.634 38.6368 108.736 38.8798 108.736 39.1332V70.5441C108.736 70.7974 108.634 71.0405 108.451 71.2196C108.269 71.3988 108.021 71.4994 107.763 71.4994H104.021C103.763 71.4994 103.515 71.3988 103.332 71.2196C103.15 71.0405 103.047 70.7974 103.047 70.5441V39.1332C103.047 38.8798 103.15 38.6368 103.332 38.4576C103.515 38.2785 103.763 38.1778 104.021 38.1778Z" fill="#191008"/>
<path d="M125.725 71.435C124.041 71.0868 122.407 70.5373 120.859 69.7989C119.664 69.229 118.537 68.5314 117.498 67.7185C117.399 67.6392 117.317 67.5415 117.256 67.4309C117.196 67.3204 117.158 67.1993 117.145 67.0744C117.132 66.9495 117.145 66.8233 117.181 66.7031C117.218 66.5829 117.279 66.471 117.36 66.3738L119.518 63.7751C119.672 63.5911 119.89 63.47 120.13 63.4356C120.369 63.4011 120.614 63.4558 120.815 63.5888C122.326 64.6068 123.961 65.4363 125.681 66.0585C127.449 66.7086 129.319 67.0506 131.207 67.0688C134.151 67.0688 136.397 66.5983 137.945 65.6573C138.677 65.2456 139.28 64.6451 139.689 63.921C140.098 63.1968 140.298 62.3766 140.266 61.5491C140.266 60.2641 139.874 59.3087 139.088 58.6829C138.228 58.016 137.207 57.5769 136.125 57.4075C134.942 57.1957 133.292 57.0038 131.173 56.8318H131.105C130.918 56.8318 130.723 56.8318 130.516 56.8151C130.309 56.7984 130.09 56.7888 129.896 56.7673C129.808 56.7677 129.72 56.7621 129.633 56.7506C129.546 56.7411 129.459 56.7363 129.372 56.7363C127.475 56.6031 125.596 56.2831 123.764 55.7809C122.269 55.3444 120.945 54.4703 119.97 53.2754C118.955 52.0557 118.448 50.3041 118.45 48.0207C118.45 45.7724 118.961 43.8895 119.985 42.372C121.009 40.8545 122.513 39.6985 124.499 38.9039C126.484 38.1078 128.926 37.7097 131.825 37.7097C133.411 37.7075 134.994 37.8579 136.551 38.1587C138.07 38.4537 139.555 38.9002 140.981 39.4915C142.056 39.937 143.09 40.4716 144.072 41.0894C144.186 41.1632 144.284 41.26 144.357 41.3733C144.431 41.4866 144.48 41.6139 144.5 41.7469C144.52 41.88 144.511 42.0157 144.475 42.1452C144.438 42.2747 144.373 42.3951 144.286 42.4986L142.132 45.0423C141.987 45.2117 141.786 45.3262 141.564 45.3663C141.342 45.4064 141.113 45.3695 140.916 45.262C139.549 44.4841 138.099 43.8569 136.592 43.3919C135.019 42.8955 133.378 42.6354 131.725 42.6204C129.153 42.6204 127.191 43.0702 125.839 43.9699C124.488 44.8695 123.813 46.1744 123.813 47.8846C123.813 49.0199 124.183 49.8599 124.925 50.4044C125.761 50.9837 126.729 51.3542 127.745 51.484C128.892 51.6656 130.489 51.8248 132.536 51.9617C132.651 51.9616 132.766 51.9672 132.881 51.9784C132.995 51.9897 133.11 51.9953 133.224 51.9952H133.419C133.486 51.995 133.552 52.0055 133.616 52.0262C135.665 52.125 137.698 52.4316 139.682 52.941C141.339 53.3959 142.809 54.35 143.884 55.6686C145.02 57.0301 145.588 58.9942 145.588 61.561C145.588 63.8285 145.043 65.7329 143.952 67.2743C142.862 68.8156 141.24 69.9876 139.086 70.7901C136.94 71.5863 134.307 71.9843 131.188 71.9843C129.352 71.9907 127.521 71.8066 125.725 71.435Z" fill="#191008"/>
<path d="M152.452 38.1779H165.81C166.068 38.1779 166.316 38.2785 166.498 38.4577C166.681 38.6369 166.784 38.8799 166.784 39.1332V42.1666C166.784 42.42 166.681 42.663 166.498 42.8422C166.316 43.0213 166.068 43.122 165.81 43.122H152.452C152.194 43.122 151.946 43.0213 151.764 42.8422C151.581 42.663 151.479 42.42 151.479 42.1666V39.1332C151.479 38.8799 151.581 38.6369 151.764 38.4577C151.946 38.2785 152.194 38.1779 152.452 38.1779ZM156.89 69.4287C155.615 67.9399 154.978 65.7409 154.978 62.8317V29.4408C154.978 29.1874 155.08 28.9444 155.263 28.7652C155.445 28.5861 155.693 28.4854 155.951 28.4854H159.696C159.954 28.4854 160.201 28.5861 160.384 28.7652C160.566 28.9444 160.669 29.1874 160.669 29.4408V62.901C160.669 64.0363 160.912 64.9033 161.399 65.502C161.885 66.1008 162.611 66.4001 163.574 66.4001H165.805C166.064 66.4001 166.311 66.5008 166.494 66.6799C166.676 66.8591 166.779 67.1021 166.779 67.3555V70.6994C166.779 70.9528 166.676 71.1958 166.494 71.3749C166.311 71.5541 166.064 71.6548 165.805 71.6548H162.924C160.178 71.6579 158.167 70.9159 156.89 69.4287Z" fill="#191008"/>
<path d="M187.724 60.6271C191.07 60.6271 193.783 57.9644 193.783 54.6798C193.783 51.3952 191.07 48.7325 187.724 48.7325C184.378 48.7325 181.665 51.3952 181.665 54.6798C181.665 57.9644 184.378 60.6271 187.724 60.6271Z" fill="#FF8000"/>
<path d="M187.724 37.7216C184.307 37.7216 180.967 38.7162 178.126 40.5796C175.285 42.443 173.071 45.0915 171.763 48.1902C170.456 51.2889 170.114 54.6986 170.78 57.9882C171.447 61.2778 173.092 64.2994 175.508 66.6711C177.924 69.0427 181.003 70.6578 184.354 71.3122C187.705 71.9665 191.179 71.6307 194.335 70.3471C197.492 69.0636 200.19 66.89 202.089 64.1013C203.987 61.3125 205 58.0338 205 54.6798C205 50.1822 203.18 45.8688 199.94 42.6886C196.7 39.5083 192.306 37.7216 187.724 37.7216ZM187.724 66.3523C185.372 66.3523 183.073 65.6677 181.118 64.3851C179.162 63.1025 177.638 61.2795 176.738 59.1467C175.838 57.0138 175.603 54.6669 176.061 52.4026C176.52 50.1384 177.653 48.0585 179.316 46.4261C180.979 44.7937 183.098 43.682 185.404 43.2316C187.711 42.7812 190.102 43.0124 192.275 43.8958C194.448 44.7793 196.305 46.2754 197.611 48.1949C198.918 50.1145 199.615 52.3712 199.615 54.6798C199.615 56.2127 199.308 57.7305 198.71 59.1467C198.113 60.5629 197.237 61.8496 196.133 62.9335C195.028 64.0174 193.717 64.8772 192.275 65.4638C190.832 66.0504 189.286 66.3523 187.724 66.3523Z" fill="#191008"/>
<path d="M105.967 28.4066C105.197 28.4066 104.445 28.6307 103.804 29.0506C103.164 29.4705 102.665 30.0674 102.371 30.7657C102.076 31.464 101.999 32.2324 102.149 32.9737C102.299 33.715 102.67 34.3959 103.215 34.9304C103.759 35.4648 104.453 35.8288 105.208 35.9763C105.963 36.1237 106.746 36.048 107.457 35.7588C108.169 35.4695 108.777 34.9797 109.204 34.3513C109.632 33.7228 109.861 32.984 109.861 32.2281C109.861 31.2146 109.45 30.2425 108.72 29.5259C107.99 28.8092 107 28.4066 105.967 28.4066ZM105.967 34.8554C105.438 34.8554 104.921 34.7014 104.48 34.4127C104.04 34.124 103.697 33.7136 103.495 33.2336C103.292 32.7535 103.239 32.2252 103.342 31.7156C103.446 31.2059 103.7 30.7378 104.075 30.3703C104.449 30.0029 104.926 29.7527 105.445 29.6513C105.964 29.5499 106.503 29.6019 106.992 29.8008C107.481 29.9996 107.899 30.3364 108.193 30.7685C108.487 31.2005 108.644 31.7085 108.644 32.2281C108.645 32.5735 108.576 32.9157 108.442 33.235C108.307 33.5543 108.11 33.8445 107.862 34.089C107.613 34.3335 107.318 34.5274 106.993 34.6598C106.668 34.7921 106.319 34.8602 105.967 34.8602V34.8554Z" fill="#191008"/>
<path d="M105.968 33.5681C106.721 33.5681 107.333 32.9681 107.333 32.2281C107.333 31.4881 106.721 30.8882 105.968 30.8882C105.214 30.8882 104.603 31.4881 104.603 32.2281C104.603 32.9681 105.214 33.5681 105.968 33.5681Z" fill="#FF8000"/>
</svg>
