<svg width="24" height="24" viewBox="0 0 24 24" fill="none" xmlns="http://www.w3.org/2000/svg">
<path d="M16.8273 1.56904C16.835 1.19244 17.0011 0.906152 17.3308 0.739209C17.6866 0.559818 18.0353 0.60668 18.3428 0.861243C18.8304 1.26542 19.3103 1.67912 19.7934 2.0894C20.1466 2.38936 20.5065 2.68224 20.8513 2.99245C21.1478 3.26093 21.2437 3.60653 21.1143 3.99094C20.9888 4.36436 20.7138 4.60111 20.3298 4.61087C20.1163 4.61673 19.8542 4.55278 19.6914 4.42123C18.8258 3.72222 17.9843 2.99416 17.1394 2.27074C16.9292 2.09306 16.8227 1.85485 16.8273 1.56904Z" fill="#302920"/>
<path d="M4.95587 1.5601C4.96308 1.86396 4.84069 2.10828 4.61781 2.29841C3.79502 3.00059 2.97343 3.70473 2.14127 4.3974C1.71521 4.75227 1.16364 4.69467 0.826784 4.2861C0.50267 3.89242 0.548354 3.32349 0.958545 2.96813C1.77604 2.26033 2.60412 1.56376 3.43219 0.867676C3.73876 0.610184 4.08691 0.559906 4.44469 0.735879C4.77554 0.898673 4.94456 1.18375 4.95587 1.5601Z" fill="#302920"/>
<path d="M23.8527 15.0654C23.7182 14.8557 23.5075 14.7084 23.2665 14.6558C23.0255 14.6033 22.7738 14.6496 22.5663 14.7847L21.4711 15.5035C21.9813 13.403 21.8573 11.2567 21.0797 9.06983C20.3115 6.91202 18.9552 5.19622 17.1223 3.87386C15.9977 3.06257 14.758 2.4895 13.4077 2.1849C12.8864 2.06751 12.357 1.98721 11.8136 1.88689C11.8136 1.6521 11.8006 1.41023 11.8162 1.17006C11.8535 0.58967 11.627 0.191106 11.0762 0H10.7076C10.1572 0.191106 9.92998 0.589182 9.96749 1.16958C9.98312 1.4095 9.97014 1.65137 9.97014 1.88714C9.4277 1.98721 8.8985 2.06726 8.37746 2.18441C7.02763 2.4895 5.78816 3.0616 4.66434 3.87215C2.81824 5.20305 1.43259 6.92545 0.694915 9.10986C-0.661409 13.1248 -0.0398704 16.8251 2.62613 20.1073C4.21953 22.0689 6.29429 23.2737 8.74966 23.7808C9.16178 23.8658 9.58423 23.8992 10.0019 23.958C10.0687 23.9675 10.1344 23.9858 10.2005 24H11.4912C11.5342 23.9854 11.5785 23.9748 11.6234 23.9683C12.7744 23.8956 13.906 23.6333 14.9739 23.1916C15.8156 22.8489 16.6096 22.3958 17.3355 21.8441C17.8926 21.4192 17.8208 20.5808 17.211 20.265C16.8316 20.0683 16.4851 20.1613 16.1545 20.4007C14.8994 21.3101 13.5097 21.8685 11.9764 22.0543C10.0468 22.2881 8.22695 21.9266 6.53377 20.9738C4.79538 19.9958 3.50085 18.5773 2.67807 16.7319C1.84254 14.8565 1.64201 12.9112 2.09163 10.9008C2.48139 9.15794 3.3061 7.65253 4.55807 6.4046C6.12838 4.8389 8.02233 3.96099 10.2185 3.78306C12.0045 3.63662 13.6876 4.02127 15.2485 4.90163C16.9797 5.8779 18.2704 7.2874 19.0956 9.12182C19.8958 10.8996 20.1173 12.7509 19.7601 14.6756C19.7348 14.8118 19.7062 14.9467 19.6743 15.0803L19.1694 13.5729C19.0893 13.3362 18.9203 13.1413 18.6991 13.0307C18.478 12.9201 18.2227 12.9029 17.9891 12.9827C17.756 13.0641 17.5642 13.2356 17.4552 13.46C17.3463 13.6843 17.3292 13.9433 17.4077 14.1804L18.7234 18.1099C18.7721 18.2474 18.8503 18.3723 18.9523 18.4755C19.0543 18.5787 19.1776 18.6576 19.3133 18.7067C19.4489 18.7557 19.5936 18.7736 19.7369 18.759C19.8802 18.7444 20.0186 18.6978 20.142 18.6224L23.5757 16.3704C23.7822 16.234 23.9272 16.0203 23.9791 15.7758C24.0309 15.5314 23.9855 15.276 23.8527 15.0654Z" fill="#FF8000"/>
<path d="M14.6992 8.88251C13.7695 9.83552 12.8431 10.7915 11.9199 11.7503C11.8134 11.8606 11.7158 11.9497 11.5744 11.8799C11.3033 11.8449 11.0279 11.875 10.7703 11.9677C10.5127 12.0605 10.2801 12.2133 10.0914 12.4139C10.0733 12.4083 10.0548 12.403 10.0361 12.3983L5.69228 11.352C5.47202 11.2993 5.24017 11.3373 5.04747 11.4578C4.85478 11.5782 4.71695 11.7713 4.66416 11.9946C4.6126 12.2181 4.65024 12.4531 4.76885 12.6485C4.88747 12.8439 5.07743 12.9836 5.29723 13.0373L9.64127 14.0829C9.66363 14.0882 9.68623 14.0926 9.70883 14.0961C9.82785 14.5168 10.0979 14.8556 10.5218 15.0897C11.1395 15.4314 11.7687 15.385 12.3337 14.9544C12.8742 14.5425 13.088 13.9755 12.9942 13.2879C12.9861 13.187 13.0179 13.0869 13.0824 13.0097C13.5393 12.5216 14.0091 12.0444 14.4748 11.5641C14.9504 11.0733 15.4291 10.5859 15.9014 10.0916C16.2861 9.68891 16.2791 9.13976 15.8949 8.79806C15.5417 8.48443 15.0591 8.51348 14.6992 8.88251Z" fill="#302920"/>
</svg>
