<svg width="24" height="24" viewBox="0 0 24 24" fill="none" xmlns="http://www.w3.org/2000/svg">
<g clip-path="url(#clip0_266_573)">
<path d="M12.3896 11.6297V9.04229C13.1936 9.15269 13.8873 8.94744 14.4087 8.30518C14.7606 7.87174 14.8911 7.36588 14.8338 6.81439C14.7425 5.9368 13.9327 4.8486 12.393 5.05512V2.49322H14.9612C14.8498 3.26602 15.0377 3.93939 15.64 4.46105C16.0772 4.84044 16.5907 4.97889 17.1636 4.93376C18.0415 4.86466 19.1667 4.02174 18.9418 2.49194H21.5223V2.77011C21.5223 3.56663 21.5223 4.36314 21.5223 5.15966C21.5223 5.72645 21.8283 5.96484 22.369 5.82563C22.9241 5.68259 23.4562 5.87178 23.7731 6.3246C23.921 6.53711 24.0003 6.7898 24.0003 7.04871C24.0003 7.30761 23.921 7.5603 23.7731 7.77281C23.4572 8.22767 22.9246 8.41737 22.3708 8.2728C21.8326 8.13231 21.5231 8.37479 21.522 8.93852C21.5205 9.73503 21.5205 10.5315 21.522 11.3278V11.6299H21.2332C20.4285 11.6299 19.6236 11.6284 18.8189 11.6299C18.2661 11.6312 18.0366 11.9316 18.1741 12.467C18.3163 13.0226 18.1269 13.5577 17.6766 13.8719C17.4604 14.0216 17.2032 14.1009 16.9403 14.099C16.6773 14.0971 16.4213 14.014 16.2073 13.8612C15.7603 13.5417 15.5826 13.0136 15.7323 12.4494C15.8638 11.952 15.6259 11.6335 15.1122 11.6315C14.2991 11.6279 13.486 11.6315 12.6729 11.6315L12.3896 11.6297Z" fill="#FF8000"/>
<path d="M2.50061 5.05605C2.49055 5.02576 2.48379 4.99447 2.48047 4.96273C2.48047 4.14964 2.48047 3.33681 2.48047 2.49159C2.57608 2.48726 2.66302 2.48012 2.75022 2.48012C3.55515 2.48012 4.36008 2.48012 5.16501 2.47885C5.729 2.47706 5.96459 2.16983 5.82537 1.62573C5.68387 1.07169 5.87637 0.53804 6.32944 0.223412C6.54273 0.0765233 6.7958 -0.00168069 7.05477 -0.000723743C7.31374 0.000233203 7.56623 0.0803053 7.77842 0.228766C8.23098 0.545689 8.41813 1.07806 8.27229 1.6344C8.13486 2.15937 8.37428 2.47579 8.92041 2.47885C9.72534 2.48241 10.5305 2.47885 11.3355 2.47885H11.6274V2.80214C11.6274 3.59891 11.6246 4.39543 11.6287 5.1922C11.6315 5.72763 11.9423 5.96169 12.4558 5.82962C13.0254 5.68174 13.5646 5.8727 13.88 6.33394C14.0252 6.54818 14.1019 6.80146 14.1 7.06026C14.098 7.31906 14.0175 7.57115 13.8691 7.78317C13.5486 8.23956 13.0154 8.41906 12.4369 8.26557C11.9573 8.13808 11.6335 8.37673 11.6294 8.87621C11.6231 9.68955 11.6274 10.5029 11.6274 11.316V11.6074H9.03693C9.1481 10.8695 8.97829 10.2189 8.4296 9.6995C8.01044 9.30277 7.50509 9.135 6.92913 9.15744C5.7392 9.20435 4.98195 10.1842 5.05079 11.6138H2.49016V9.03862C3.26628 9.15106 3.94015 8.96213 4.46181 8.36118C4.84146 7.92468 4.98144 7.41041 4.93452 6.83699C4.84018 5.68428 3.82669 4.93749 2.50061 5.05605Z" fill="#FF8000"/>
<path d="M2.47842 12.3766H4.92942C5.04543 12.3766 5.16195 12.3807 5.2777 12.3733C5.72899 12.344 5.95489 12.0252 5.84016 11.5842C5.66321 10.9031 5.92302 10.2823 6.51429 10.0197C6.99515 9.80627 7.46021 9.86033 7.86561 10.1994C8.27101 10.5385 8.39263 10.9829 8.28452 11.4998C8.25316 11.6492 8.22333 11.8144 8.2552 11.9587C8.31843 12.2435 8.54076 12.374 8.90689 12.3758C9.70315 12.3796 10.4997 12.3758 11.2959 12.3758H11.6078V14.9454C10.0356 14.9148 9.10526 15.7335 9.16008 17.0835C9.19577 18.0172 10.0627 19.1646 11.6062 18.9425V21.5054H9.04993C9.12209 19.9945 8.28503 19.0254 6.9666 19.0562C5.9526 19.0802 4.8208 20.0213 5.06302 21.5054H2.47842V21.2367C2.47842 20.432 2.48021 19.6273 2.47842 18.8227C2.47689 18.2747 2.16558 18.0361 1.63882 18.173C1.08223 18.3176 0.551895 18.1322 0.232167 17.6817C0.0803677 17.4667 -0.000771154 17.2098 5.52422e-06 16.9467C0.000782202 16.6835 0.083436 16.4271 0.236502 16.2131C0.55572 15.7643 1.08478 15.583 1.6457 15.7309C2.15563 15.865 2.47587 15.6231 2.47817 15.095C2.48148 14.2904 2.47817 13.4857 2.47817 12.6808L2.47842 12.3766Z" fill="#FF8000"/>
<path d="M12.374 21.5205C12.374 20.611 12.3755 19.7401 12.3722 18.8689C12.3722 18.7457 12.3694 18.6159 12.3329 18.5002C12.2353 18.1914 11.9349 18.0695 11.5576 18.1687C10.8386 18.3561 10.157 17.9997 9.95766 17.3204C9.82075 16.8541 9.91687 16.4296 10.2511 16.0752C10.5854 15.7208 11.0071 15.6055 11.4788 15.7149C12.1024 15.8595 12.373 15.6537 12.3737 15.0133C12.3737 14.1504 12.3737 13.2879 12.3737 12.4014H14.9604C14.8487 13.1721 15.042 13.8465 15.6439 14.3669C16.0812 14.7445 16.5983 14.895 17.1696 14.835C18.2341 14.7231 19.1584 13.7343 18.9378 12.4011H21.5038V14.9635C20.7728 14.8529 20.1306 15.0196 19.6135 15.5566C19.1994 15.9867 19.0299 16.5066 19.061 17.1017C19.114 18.1078 20.073 19.1738 21.5023 18.9374V21.5205H21.2387C20.4419 21.5205 19.6451 21.5205 18.8486 21.5205C18.2678 21.5218 18.036 21.8229 18.1783 22.3854C18.3173 22.9343 18.1179 23.4728 17.6612 23.7828C17.4467 23.9279 17.1928 24.0037 16.9339 24.0002C16.6749 23.9966 16.4233 23.9138 16.2128 23.7629C15.7696 23.4481 15.584 22.9203 15.7258 22.3772C15.8675 21.8341 15.6299 21.5223 15.0682 21.5205C14.2714 21.518 13.4749 21.5205 12.6782 21.5205H12.374Z" fill="#302920"/>
</g>
<defs>
<clipPath id="clip0_266_573">
<rect width="24" height="24" fill="white"/>
</clipPath>
</defs>
</svg>
