<svg width="24" height="24" viewBox="0 0 24 24" fill="none" xmlns="http://www.w3.org/2000/svg">
<g clip-path="url(#clip0_266_568)">
<path fill-rule="evenodd" clip-rule="evenodd" d="M17.1078 7.72546C17.0109 7.72971 16.9139 7.72908 16.8171 7.72356C16.667 7.70809 16.5753 7.62287 16.5674 7.4679C16.5595 7.31293 16.6351 7.20274 16.7871 7.18998C17.0064 7.17175 17.2267 7.17021 17.4462 7.18537C17.5999 7.19568 17.6768 7.31537 17.6741 7.46084C17.6754 7.52351 17.6533 7.58443 17.612 7.63178C17.5707 7.67913 17.5132 7.70952 17.4506 7.71704C17.3733 7.72926 17.2935 7.72625 17.2138 7.72324C17.1784 7.72191 17.143 7.72057 17.1078 7.72057V7.72546ZM14.646 7.79086C14.646 7.7165 14.6662 7.64404 14.7279 7.60495C14.9528 7.46247 15.1973 7.35906 15.4648 7.33654C15.5881 7.32595 15.6796 7.41606 15.7104 7.539C15.7445 7.6747 15.6932 7.78978 15.5668 7.84542C15.3745 7.93252 15.1765 8.00642 14.974 8.06661C14.7939 8.11709 14.6389 7.97379 14.646 7.79086ZM13.0919 10.2894C13.0795 10.358 13.0684 10.4247 13.0576 10.4899L13.0576 10.4899L13.0576 10.4899C13.0335 10.6351 13.0107 10.7728 12.9768 10.9076C12.9413 11.0493 12.834 11.1343 12.6798 11.1142C12.5161 11.0927 12.4195 10.9806 12.4342 10.8227C12.4562 10.6133 12.4968 10.4062 12.5554 10.2039C12.5955 10.0628 12.7159 9.99112 12.8671 10.0248C12.9299 10.0355 12.9869 10.0679 13.028 10.1163C13.0692 10.1647 13.0918 10.226 13.0919 10.2894ZM21.1517 17.5941C21.143 17.7491 21.0829 17.843 20.9645 17.8862C20.846 17.9293 20.7248 17.9076 20.6582 17.7985C20.5444 17.6112 20.4414 17.4175 20.3498 17.2185C20.2953 17.1026 20.3425 16.9922 20.4451 16.9164C20.5477 16.8407 20.6724 16.8252 20.7622 16.9164C20.9496 17.102 21.0484 17.3426 21.1386 17.5622L21.1517 17.5941ZM21.2367 21.0028L21.2546 20.9544C21.2636 20.8108 21.2112 20.7055 21.0799 20.6547C20.9364 20.5996 20.8103 20.6409 20.7399 20.7744C20.646 20.953 20.5655 21.1392 20.4899 21.3262C20.4323 21.4714 20.4921 21.587 20.6233 21.6581C20.7472 21.7254 20.8739 21.7037 20.9558 21.5916C21.0856 21.4124 21.1622 21.2049 21.2367 21.0028ZM13.1727 8.90333C13.0619 9.09168 13.2085 9.3183 13.444 9.31043C13.449 9.30853 13.4562 9.30678 13.4648 9.30472C13.488 9.29916 13.5207 9.29131 13.5423 9.27189C13.7298 9.09901 13.9028 8.91066 14.03 8.69001C14.0958 8.57602 14.033 8.46448 13.9358 8.3893C13.8247 8.30299 13.6997 8.30706 13.596 8.39934C13.4288 8.54378 13.2859 8.71393 13.1727 8.90333ZM13.7603 13.6515C13.7955 13.6486 13.831 13.6527 13.8645 13.6637C13.8981 13.6747 13.9291 13.6922 13.9557 13.7153C13.995 13.7497 14.0345 13.784 14.074 13.8183L14.0741 13.8184C14.1742 13.9051 14.2743 13.9919 14.3703 14.0827C14.489 14.1951 14.5068 14.3313 14.4031 14.4594C14.2994 14.5875 14.1574 14.6087 14.0283 14.5086C13.8624 14.3785 13.705 14.2381 13.557 14.0882C13.4781 14.0089 13.4678 13.9014 13.5262 13.7953C13.5474 13.7517 13.5807 13.715 13.6222 13.6895C13.6637 13.664 13.7116 13.6508 13.7603 13.6515ZM21.2289 18.7012C21.0223 18.7023 20.9443 18.857 20.9677 19.2323C20.9677 19.2633 20.967 19.2944 20.9663 19.3255C20.9647 19.3912 20.9632 19.4568 20.9686 19.5219C20.9828 19.6902 21.0655 19.8104 21.2483 19.8082C21.4312 19.806 21.5152 19.691 21.5248 19.5194C21.5309 19.4172 21.528 19.3142 21.525 19.2116L21.525 19.2116L21.5248 19.2033C21.515 18.8477 21.4271 18.7012 21.2289 18.7012ZM19.4839 23.1554C19.4307 23.1604 19.3773 23.1488 19.331 23.1225C19.2847 23.0961 19.2477 23.0561 19.2251 23.008C19.1733 22.912 19.1705 22.8072 19.2453 22.7366C19.4188 22.575 19.601 22.4228 19.7912 22.281C19.887 22.2093 19.9978 22.2473 20.0832 22.3222C20.1593 22.389 20.1984 22.4756 20.1738 22.5817C20.1361 22.7434 19.6468 23.1505 19.4839 23.1554ZM17.4064 23.7028C17.4347 23.854 17.5401 23.9213 17.7202 23.9376C17.7761 23.9224 17.835 23.9075 17.8957 23.8922L17.8958 23.8922C18.0345 23.8571 18.1827 23.8197 18.3269 23.7704C18.4699 23.7207 18.5237 23.5953 18.4841 23.448C18.4446 23.3006 18.331 23.2279 18.182 23.255C17.9743 23.2934 17.7692 23.3445 17.5679 23.4081C17.4353 23.4504 17.3807 23.565 17.4064 23.7028ZM18.7915 7.72355C18.8882 7.72908 18.9853 7.72971 19.0821 7.72545L19.0808 7.72057C19.1159 7.72057 19.1513 7.72191 19.1868 7.72324C19.2665 7.72625 19.3463 7.72926 19.4235 7.71704C19.4861 7.70951 19.5437 7.67913 19.585 7.63178C19.6263 7.58443 19.6484 7.52351 19.6471 7.46084C19.6498 7.31537 19.5728 7.19568 19.4189 7.18537C19.1995 7.17021 18.9792 7.17175 18.7601 7.18998C18.6094 7.20274 18.5338 7.31293 18.5417 7.4679C18.5496 7.62287 18.6413 7.70808 18.7915 7.72355ZM13.2712 12.7135C13.265 12.8894 13.2033 12.9819 13.0802 13.0186C12.95 13.0574 12.8275 13.0278 12.7598 12.9024C12.6517 12.7009 12.5762 12.4838 12.536 12.2589C12.512 12.1265 12.5906 12.0179 12.7227 11.975C12.8403 11.9368 12.9729 11.9552 13.0256 12.07C13.0999 12.231 13.1593 12.3991 13.2129 12.551L13.2129 12.551C13.233 12.6079 13.2523 12.6625 13.2712 12.7135ZM15.7338 15.2772C15.7785 15.2867 15.8186 15.2953 15.8518 15.3033C16.1026 15.3193 16.2309 15.2634 16.2552 15.0802C16.2786 14.9021 16.1845 14.8014 16.012 14.7664C15.9476 14.7534 15.8836 14.7387 15.8195 14.7241L15.8195 14.7241C15.7118 14.6995 15.6043 14.6749 15.4956 14.6579C15.3365 14.6318 15.2142 14.6961 15.1752 14.8579C15.1362 15.0196 15.2107 15.1382 15.3638 15.1857C15.4935 15.2259 15.6269 15.2544 15.7338 15.2772ZM17.6374 14.8569L17.6375 14.8569L17.6375 14.8569L17.6375 14.8569C17.7471 14.8774 17.8785 14.9019 18.0079 14.9352C18.1665 14.9754 18.2472 15.0894 18.2169 15.2511C18.1866 15.4129 18.0685 15.487 17.9058 15.4683C17.7586 15.4502 17.6123 15.424 17.4662 15.3979L17.3845 15.3833C17.2112 15.3526 17.1004 15.2538 17.1203 15.0793C17.1419 14.8932 17.2762 14.8147 17.5218 14.8348C17.5561 14.8417 17.5949 14.849 17.637 14.8568L17.6372 14.8569L17.6374 14.8569ZM19.956 16.011C19.9096 15.8639 19.3856 15.4712 19.2219 15.4734C19.175 15.4766 19.1296 15.4916 19.0902 15.517C19.0507 15.5424 19.0183 15.5774 18.9961 15.6186C18.9478 15.7095 18.9361 15.817 19.0065 15.8922C19.1812 16.0786 19.3949 16.2219 19.6179 16.3451C19.7104 16.3964 19.8108 16.3468 19.8826 16.2748C19.9544 16.2029 19.9893 16.1163 19.956 16.011ZM8.0933 23.9965C8.06391 23.9965 8.03451 23.9968 8.00513 23.9971C7.94639 23.9978 7.88769 23.9985 7.82911 23.9965C7.66535 23.9886 7.56028 23.9034 7.55291 23.7386C7.54499 23.5598 7.65007 23.4594 7.82583 23.4501C8.0104 23.4409 8.19531 23.4409 8.37987 23.4501C8.55427 23.4585 8.66754 23.5587 8.65826 23.7343C8.64898 23.9099 8.53571 23.9975 8.35804 23.9981C8.27 23.997 8.18196 23.9967 8.09446 23.9965L8.0933 23.9965ZM9.97559 23.9967C10.0049 23.9963 10.0343 23.9959 10.0636 23.9959C10.0967 23.9958 10.1298 23.9962 10.163 23.9965C10.2267 23.9971 10.2905 23.9977 10.3542 23.9954C10.5207 23.9886 10.6209 23.8961 10.6299 23.7343C10.6389 23.5725 10.542 23.4643 10.3782 23.4539C10.1764 23.4413 9.97393 23.4413 9.77207 23.4539C9.60613 23.4656 9.51661 23.5723 9.52425 23.737C9.5319 23.9018 9.63561 23.9881 9.79936 23.9959C9.85791 23.9983 9.9167 23.9975 9.97541 23.9967H9.97546H9.9755H9.97555H9.97559ZM11.9599 23.997H11.9598C11.9011 23.9976 11.8423 23.9981 11.7835 23.9965C11.6072 23.9905 11.4975 23.9021 11.4953 23.7235C11.4934 23.5585 11.5927 23.4597 11.7565 23.4521C11.9498 23.4419 12.1435 23.4419 12.3367 23.4521C12.5005 23.4608 12.605 23.5606 12.6015 23.7235C12.5977 23.8953 12.4923 23.9949 12.3119 23.9984C12.2681 23.9984 12.2242 23.9979 12.1803 23.9974H12.1802H12.1801H12.18C12.1359 23.997 12.0918 23.9965 12.0477 23.9965C12.0185 23.9965 11.9893 23.9968 11.96 23.997H11.9599H11.9599ZM13.7137 23.9924C13.8103 23.9979 13.9071 23.9986 14.0038 23.9943V23.9954C14.0361 23.9954 14.0684 23.9958 14.1007 23.9961C14.1654 23.9968 14.23 23.9976 14.2944 23.9954C14.4631 23.9897 14.5619 23.898 14.5723 23.7362C14.5827 23.5744 14.4869 23.464 14.3231 23.4542C14.1125 23.4412 13.9013 23.4428 13.691 23.4588C13.5373 23.471 13.4609 23.5826 13.4664 23.734C13.4718 23.8855 13.5616 23.9772 13.7137 23.9924ZM15.9661 23.9938C15.9364 23.9938 15.9065 23.9947 15.8767 23.9956C15.8094 23.9977 15.742 23.9998 15.676 23.9913C15.5253 23.972 15.4391 23.8765 15.4375 23.7248C15.4358 23.5875 15.5051 23.483 15.646 23.4607C15.8721 23.426 16.1022 23.426 16.3283 23.4607C16.4686 23.4813 16.5466 23.5847 16.5439 23.7202C16.5425 23.8665 16.462 23.9726 16.3078 23.9916C16.2297 24.0008 16.1502 23.9985 16.0706 23.9963C16.0353 23.9953 16 23.9943 15.9647 23.9943L15.9661 23.9938ZM5.89898 23.8572C5.98304 24.0062 6.12796 24.0038 6.24696 23.9981C6.49559 23.9978 6.59303 23.9666 6.65116 23.8627C6.71967 23.7416 6.70438 23.6236 6.60367 23.5245C6.48495 23.4078 6.07338 23.4045 5.95165 23.5207C5.8504 23.6173 5.82966 23.7335 5.89898 23.8572Z" fill="#302920"/>
<path d="M4.74269 10.5051C4.45311 10.4932 4.10895 10.5377 3.76643 10.6042C1.15207 11.1109 -0.823908 13.81 0.343122 16.5416C1.46048 19.1574 3.04236 21.5264 4.66326 23.8803C4.7869 24.0602 4.85813 23.9986 4.94902 23.8637C5.09503 23.6466 5.24924 23.4352 5.39662 23.2189C6.70257 21.2968 7.97631 19.3579 8.94192 17.2611C9.27107 16.5462 9.59203 15.8197 9.61059 15.0286C9.66818 12.5555 7.48204 10.5076 4.74269 10.5051ZM4.80819 17.4239C4.33856 17.4239 3.87949 17.2855 3.48901 17.026C3.09853 16.7666 2.79419 16.3978 2.61448 15.9663C2.43476 15.5349 2.38774 15.0601 2.47936 14.6021C2.57098 14.1441 2.79712 13.7234 3.12919 13.3931C3.46127 13.0629 3.88436 12.838 4.34495 12.7469C4.80555 12.6558 5.28298 12.7026 5.71685 12.8813C6.15073 13.06 6.52157 13.3626 6.78247 13.7509C7.04338 14.1392 7.18264 14.5958 7.18264 15.0628C7.18264 15.689 6.93248 16.2896 6.48718 16.7324C6.04188 17.1752 5.43793 17.4239 4.80819 17.4239Z" fill="#FF8000"/>
<path d="M21.2173 6.32505e-05C21.0517 -0.00563617 20.8552 0.0198755 20.66 0.0576003C19.166 0.347185 18.0369 1.88956 18.704 3.45011C19.3423 4.94472 20.2463 6.29983 21.1723 7.64353C21.2433 7.74639 21.2839 7.71111 21.3361 7.63403C21.4196 7.51028 21.5077 7.38977 21.5918 7.26574C22.338 6.16738 23.0656 5.05925 23.6177 3.86102C23.8058 3.45229 23.9892 3.03704 23.9998 2.58543C24.032 1.17279 22.7826 0.00250586 21.2173 6.32505e-05ZM21.2547 3.95356C20.9863 3.95356 20.724 3.87441 20.5009 3.72612C20.2777 3.57782 20.1038 3.36705 20.0012 3.12047C19.8985 2.87388 19.8717 2.60256 19.9242 2.34083C19.9766 2.07909 20.1059 1.8387 20.2958 1.65006C20.4856 1.46143 20.7275 1.33302 20.9907 1.28108C21.254 1.22915 21.5268 1.25602 21.7747 1.3583C22.0226 1.46058 22.2344 1.63367 22.3833 1.85568C22.5323 2.07769 22.6117 2.33863 22.6114 2.60551C22.6115 2.7827 22.5764 2.95815 22.5082 3.12185C22.4401 3.28555 22.3401 3.43429 22.2141 3.55958C22.0882 3.68486 21.9386 3.78424 21.774 3.85202C21.6093 3.91981 21.4329 3.95468 21.2547 3.95465V3.95356Z" fill="#FF8000"/>
</g>
<defs>
<clipPath id="clip0_266_568">
<rect width="24" height="24" fill="white"/>
</clipPath>
</defs>
</svg>
