<svg width="24" height="24" viewBox="0 0 24 24" fill="none" xmlns="http://www.w3.org/2000/svg">
<g clip-path="url(#clip0_266_578)">
<path d="M17.823 8.52315C17.8182 8.21611 17.8098 7.91026 17.775 7.60512C17.7207 7.34593 17.6664 7.08658 17.612 6.82707C17.5818 6.77427 17.5548 6.71975 17.5311 6.66381C16.6379 4.20251 14.0555 2.84342 11.6279 3.28164C9.42798 3.67922 7.61673 5.54141 7.35071 7.75603C7.31758 8.05404 7.27436 8.3549 7.33174 8.651C7.4758 9.39721 8.07338 9.85705 8.84432 9.83543C8.90626 9.83353 8.96844 9.83543 9.03039 9.83543C9.88703 9.52411 10.1725 9.13818 10.2169 8.24035C10.2241 8.12492 10.2401 8.0102 10.2649 7.89719C10.531 6.6139 11.9789 5.75624 13.2068 6.15097C14.2577 6.4889 14.9088 7.3247 14.9393 8.3751C14.9678 9.3542 14.3422 10.234 13.3347 10.6211C12.7398 10.8497 12.2382 11.2014 11.8433 11.6995C11.1638 12.5569 11.0171 13.546 11.1538 14.5876C11.2481 15.3053 11.8678 15.8117 12.5761 15.8106C13.2637 15.8094 13.8879 15.2903 13.9957 14.5986C14.0358 14.3414 14.014 14.0743 14.0166 13.812C14.0192 13.561 14.1239 13.3887 14.3719 13.3001C14.7467 13.1668 15.1043 12.9904 15.4375 12.7746C16.5548 12.05 17.2662 11.0303 17.6602 9.7803C17.7404 9.36465 17.8297 8.95091 17.823 8.52315Z" fill="#302920"/>
<path d="M12.5781 17.1665C11.789 17.1644 11.1181 17.8276 11.1172 18.6112C11.1183 18.993 11.2722 19.3589 11.5451 19.6288C11.818 19.8987 12.1878 20.0507 12.5736 20.0515C13.3784 20.0515 14.0199 19.408 14.017 18.6043C14.0141 17.8219 13.3601 17.1684 12.5781 17.1665Z" fill="#302920"/>
<path d="M7.79912 17.26C7.88052 17.1951 7.92541 17.1051 7.97271 17.0162C8.23129 16.53 8.08291 16.0758 7.86971 15.6219C7.67764 15.2137 7.69589 15.1507 8.01377 14.8308C8.9057 13.9351 9.33427 12.8455 9.36404 11.5988C9.37844 10.9914 9.23679 10.4061 9.03055 9.83597C8.96861 9.83597 8.90643 9.83288 8.84448 9.83597C8.07331 9.8576 7.47596 9.39775 7.33191 8.65154C7.27452 8.35544 7.31774 8.05458 7.35087 7.75657C7.03756 7.58713 6.73552 7.39725 6.39819 7.27201C5.30145 6.86469 4.2016 6.82761 3.09478 7.22757C3.02721 7.24408 2.96067 7.26447 2.8955 7.28865C1.53322 7.88015 0.625918 8.87731 0.187271 10.2856C0.110442 10.5323 0.0617035 10.7873 0 11.0385V12.1984C0.0540205 12.2222 0.0417759 12.2737 0.0494588 12.3172C0.122927 12.7343 0.231928 13.1421 0.428323 13.5195C0.848963 14.3275 2.06214 14.4463 2.54497 13.7319C2.91351 13.3106 2.92263 12.8486 2.7236 12.3505C2.20404 11.0506 3.09502 9.62708 4.50027 9.50041C4.56269 9.50184 4.62512 9.50422 4.68754 9.50469C5.01433 9.50478 5.33658 9.58047 5.62857 9.72572C5.92057 9.87097 6.17422 10.0818 6.3693 10.3413C6.56438 10.6008 6.69548 10.9018 6.75214 11.2204C6.80881 11.539 6.78947 11.8662 6.69566 12.1761C6.56674 12.6064 6.28895 12.9323 5.98331 13.2469C5.41406 13.8332 5.15716 14.549 5.167 15.352C5.17493 16.0007 5.41526 16.5956 5.74658 17.1393C6.1958 17.8748 7.32086 17.9254 7.79912 17.26Z" fill="#FF8000"/>
<path d="M9.51415 19.379C9.29399 18.9187 8.92136 18.6568 8.39172 18.6461C7.80206 18.6093 7.2909 18.97 7.11324 19.5492C6.94157 20.1093 7.19271 20.7298 7.70986 21.0226C8.24671 21.3268 8.87167 21.2339 9.2863 20.7885C9.66205 20.366 9.75904 19.8912 9.51415 19.379Z" fill="#FF8000"/>
<path d="M17.7843 18.9676C17.7469 18.9294 17.7145 18.8845 17.6715 18.854C17.2432 18.5513 16.6496 18.5553 16.2012 18.8614C15.7704 19.1554 15.5529 19.7146 15.6792 20.2072C15.8518 20.885 16.5298 21.321 17.1625 21.1616C17.7 21.0644 18.0427 20.7436 18.1807 20.2322C18.3135 19.7402 18.1858 19.3063 17.7843 18.9676Z" fill="#FF8000"/>
<path d="M23.9522 10.4782C23.634 8.7018 22.6362 7.46675 20.9469 6.78257C19.8296 6.38452 18.7177 6.38452 17.6121 6.8282C17.6665 7.08771 17.7208 7.34706 17.7751 7.60625C17.8106 7.91139 17.819 8.21724 17.8231 8.52428C17.8298 8.95204 17.7405 9.36483 17.6594 9.77976C17.7252 9.78475 17.7508 9.72914 17.7883 9.69349C18.5494 8.96464 19.5191 8.84272 20.4413 9.36079C20.4776 9.39002 20.5133 9.4202 20.5503 9.44824C21.2763 9.99483 21.5808 10.8532 21.3407 11.6802C21.0876 12.5538 20.3602 13.1396 19.4428 13.2194C18.6353 13.2895 17.9763 13.6458 17.4421 14.2444C17.02 14.7173 16.8361 15.2939 16.6904 15.8894C16.4565 16.8454 17.1446 17.6211 18.1379 17.5189C18.7254 17.3923 19.0711 17.0263 19.2108 16.4567C19.231 16.3742 19.25 16.2903 19.2716 16.2097C19.3652 15.8549 19.4589 15.782 19.8334 15.7316C21.6963 15.4816 22.9702 14.4787 23.6953 12.7712C23.8499 12.4074 23.8873 12.0151 24.0004 11.6417V10.5744C23.9572 10.5557 23.9589 10.516 23.9522 10.4782Z" fill="#FF8000"/>
</g>
<defs>
<clipPath id="clip0_266_578">
<rect width="24" height="24" fill="white"/>
</clipPath>
</defs>
</svg>
