<svg width="27" height="26" viewBox="0 0 27 26" fill="none" xmlns="http://www.w3.org/2000/svg">
<path d="M26.7759 13.2778C26.7759 12.25 26.6855 11.5 26.4899 10.7222H13.771V15.3611H21.2367C21.0863 16.5139 20.2735 18.25 18.4672 19.4166L18.4419 19.5719L22.4634 22.4466L22.742 22.4722C25.3008 20.2916 26.7759 17.0833 26.7759 13.2778Z" fill="#4285F4"/>
<path d="M13.7708 25.5C17.4284 25.5 20.4989 24.3888 22.7418 22.4722L18.467 19.4166C17.323 20.1527 15.7877 20.6666 13.7708 20.6666C10.1884 20.6666 7.14795 18.4861 6.06411 15.4722L5.90524 15.4847L1.72363 18.4708L1.66895 18.6111C3.89662 22.6944 8.47244 25.5 13.7708 25.5Z" fill="#34A853"/>
<path d="M6.06424 15.4722C5.77826 14.6945 5.61275 13.8611 5.61275 13C5.61275 12.1388 5.77826 11.3055 6.04919 10.5278L6.04162 10.3621L1.80761 7.32803L1.66908 7.38883C0.750947 9.0833 0.224121 10.9861 0.224121 13C0.224121 15.0139 0.750947 16.9166 1.66908 18.6111L6.06424 15.4722Z" fill="#FBBC05"/>
<path d="M13.7708 5.3333C16.3145 5.3333 18.0304 6.34719 19.0088 7.19447L22.832 3.75C20.484 1.73612 17.4284 0.5 13.7708 0.5C8.47244 0.5 3.89662 3.30553 1.66895 7.38884L6.04906 10.5278C7.14795 7.51388 10.1884 5.3333 13.7708 5.3333Z" fill="#EB4335"/>
</svg>
