<svg width="61" height="60" viewBox="0 0 61 60" fill="none" xmlns="http://www.w3.org/2000/svg">
<g clip-path="url(#clip0_215_66)">
<path d="M31.9706 29.0745V22.606C33.9803 22.882 35.7146 22.3688 37.0181 20.7632C37.8977 19.6796 38.224 18.415 38.0806 17.0362C37.8524 14.8422 35.8281 12.1217 31.9788 12.638V6.23329H38.3993C38.1208 8.1653 38.5905 9.84872 40.0961 11.1529C41.1892 12.1013 42.4729 12.4475 43.9052 12.3346C46.0997 12.1619 48.9125 10.0546 48.3504 6.2301H54.8015V6.92552C54.8015 8.91681 54.8015 10.9081 54.8015 12.8994C54.8015 14.3164 55.5663 14.9124 56.9182 14.5643C58.3059 14.2067 59.6361 14.6797 60.4284 15.8117C60.7981 16.343 60.9963 16.9748 60.9963 17.622C60.9963 18.2693 60.7981 18.901 60.4284 19.4323C59.6387 20.5694 58.3071 21.0437 56.9227 20.6822C55.5772 20.331 54.8034 20.9372 54.8008 22.3465C54.797 24.3378 54.797 26.3289 54.8008 28.3198V29.0751H54.0786C52.067 29.0751 50.0548 29.0713 48.0431 29.0751C46.6613 29.0783 46.0876 29.8292 46.4312 31.1677C46.7868 32.5567 46.3132 33.8946 45.1876 34.6799C44.6471 35.0542 44.0042 35.2525 43.3467 35.2477C42.6893 35.2429 42.0493 35.0353 41.5143 34.6531C40.3969 33.8545 39.9527 32.5344 40.3268 31.1238C40.6557 29.8802 40.061 29.084 38.7767 29.0789C36.744 29.07 34.7114 29.0789 32.6787 29.0789L31.9706 29.0745Z" fill="#FF8000"/>
<path d="M7.24869 12.64C7.22353 12.5643 7.20665 12.4861 7.19833 12.4067C7.19833 10.374 7.19833 8.3419 7.19833 6.22886C7.43736 6.21803 7.65471 6.20018 7.8727 6.20018C9.88496 6.20018 11.8972 6.20018 13.9095 6.19699C15.3194 6.19253 15.9084 5.42444 15.5603 4.0642C15.2066 2.67909 15.6878 1.34498 16.8205 0.558407C17.3537 0.191186 17.9863 -0.00432379 18.6337 -0.00193143C19.2811 0.000460936 19.9123 0.200641 20.4428 0.571793C21.5742 1.3641 22.042 2.69503 21.6774 4.08587C21.3339 5.39831 21.9324 6.18934 23.2977 6.19699C25.31 6.20592 27.3229 6.19699 29.3351 6.19699H30.0649V7.00524C30.0649 8.99716 30.0579 10.9885 30.0681 12.9804C30.0751 14.319 30.8521 14.9041 32.1358 14.5739C33.5598 14.2042 34.9079 14.6816 35.6963 15.8347C36.0593 16.3703 36.2511 17.0035 36.2462 17.6505C36.2413 18.2975 36.04 18.9278 35.6689 19.4578C34.8677 20.5988 33.5349 21.0475 32.0887 20.6638C30.8897 20.3451 30.0802 20.9417 30.07 22.1904C30.0541 24.2238 30.0649 26.2571 30.0649 28.2898V29.0184H23.589C23.8669 27.1737 23.4424 25.547 22.0707 24.2486C21.0228 23.2568 19.7595 22.8374 18.3196 22.8935C15.3449 23.0108 13.4518 25.4604 13.6239 29.0343H7.22255V22.5964C9.16279 22.8775 10.8474 22.4052 12.1515 20.9028C13.1006 19.8116 13.4506 18.5259 13.3333 17.0923C13.0974 14.2106 10.5638 12.3436 7.24869 12.64Z" fill="#F2FBFD"/>
<path d="M7.19302 30.9415H13.3203C13.6103 30.9415 13.9016 30.9517 14.191 30.9332C15.3192 30.8599 15.8839 30.0631 15.5971 28.9604C15.1547 27.2578 15.8043 25.7057 17.2824 25.0492C18.4845 24.5157 19.6471 24.6508 20.6606 25.4986C21.674 26.3463 21.9781 27.4574 21.7078 28.7494C21.6294 29.1229 21.5548 29.536 21.6345 29.8968C21.7926 30.6087 22.3484 30.9351 23.2637 30.9396C25.2543 30.9491 27.2455 30.9396 29.2361 30.9396H30.0156V37.3634C26.0855 37.287 23.7596 39.3337 23.8966 42.7088C23.9859 45.043 26.153 47.9114 30.0118 47.3562V53.7635H23.6213C23.8017 49.9862 21.7091 47.5634 18.4131 47.6405C15.8782 47.7004 13.0488 50.0531 13.6543 53.7635H7.19302V53.0917C7.19302 51.08 7.19749 49.0683 7.19302 47.0566C7.1892 45.6868 6.41094 45.0902 5.09408 45.4325C3.70264 45.7939 2.37686 45.3305 1.57756 44.2042C1.19807 43.6668 0.995234 43.0246 0.997176 42.3667C0.999117 41.7088 1.20575 41.0678 1.5884 40.5327C2.38642 39.4108 3.70902 38.9576 5.11129 39.3273C6.38608 39.6626 7.18665 39.0577 7.19239 37.7376C7.20067 35.7259 7.19239 33.7142 7.19239 31.7019L7.19302 30.9415Z" fill="#F2FBFD"/>
<path d="M31.9317 53.8013C31.9317 51.5276 31.9355 49.3502 31.9272 47.1722C31.9272 46.8643 31.9202 46.5398 31.8291 46.2504C31.585 45.4785 30.8341 45.1738 29.8908 45.4218C28.0933 45.8903 26.3895 44.9992 25.8911 43.3011C25.5488 42.1353 25.7891 41.074 26.6247 40.188C27.4604 39.302 28.5146 39.0139 29.6938 39.2873C31.2529 39.6487 31.9292 39.1343 31.9311 37.5331C31.9311 35.3761 31.9311 33.2197 31.9311 31.0034H38.3975C38.1183 32.9304 38.6014 34.6163 40.1063 35.9173C41.1995 36.8613 42.4921 37.2374 43.9205 37.0876C46.5816 36.8078 48.8922 34.3359 48.3408 31.0028H54.7556V37.4088C52.9282 37.1322 51.3226 37.5491 50.0299 38.8915C48.9948 39.9668 48.5709 41.2665 48.6487 42.7542C48.7813 45.2695 51.1785 47.9345 54.7518 47.3436V53.8013H54.0927C52.1008 53.8013 50.109 53.8013 48.1178 53.8013C46.6658 53.8045 46.0864 54.5573 46.442 55.9634C46.7894 57.3358 46.291 58.682 45.1494 59.4571C44.613 59.8197 43.9785 60.0093 43.3311 60.0004C42.6837 59.9915 42.0546 59.7845 41.5283 59.4074C40.4206 58.6201 39.9565 57.3007 40.3109 55.943C40.6653 54.5853 40.0713 53.8057 38.6671 53.8013C36.6752 53.7949 34.684 53.8013 32.6921 53.8013H31.9317Z" fill="#F2FBFD"/>
</g>
<defs>
<clipPath id="clip0_215_66">
<rect width="59.9981" height="60" fill="white" transform="translate(0.998138)"/>
</clipPath>
</defs>
</svg>
