<svg width="60" height="60" viewBox="0 0 60 60" fill="none" xmlns="http://www.w3.org/2000/svg">
<g clip-path="url(#clip0_215_58)">
<path d="M16.5229 0C17.5273 0.1164 18.5328 0.2202 19.5348 0.354C20.0358 0.4206 20.5332 0.5286 21.0269 0.6396C24.3388 1.3842 26.3098 3.474 26.9176 6.768C27.7527 11.2962 27.7911 15.8622 26.968 20.388C26.2312 24.4356 24.2746 26.3448 20.2194 27.0174C15.8431 27.744 11.432 27.7644 7.05698 26.967C3.1571 26.2548 1.18676 24.207 0.483585 20.2842C0.299991 19.2504 0.229793 18.1956 0.103797 17.151C0.0779976 16.941 0.0347989 16.731 0 16.5234V11.0154C0.0347989 10.7886 0.0767976 10.5618 0.104397 10.3338C0.230393 9.2886 0.302991 8.2338 0.486585 7.1988C1.02657 4.161 2.49232 1.8426 5.60863 0.8988C6.37317 0.666066 7.15277 0.486044 7.94195 0.36C8.96192 0.198 9.99029 0.1152 11.0151 0H16.5229Z" fill="#FFFCF8"/>
<path d="M0 43.4765C0.113996 42.4919 0.207594 41.5037 0.349789 40.5227C0.445871 39.8683 0.578069 39.2197 0.745777 38.5799C1.55335 35.4743 3.62569 33.6761 6.71019 33.0989C11.3546 32.2289 16.0285 32.2397 20.676 33.0713C24.2506 33.7109 26.3518 35.9237 26.9608 39.4913C27.7287 43.9913 27.7689 48.5075 26.9518 52.9973C26.2468 56.8715 24.1918 58.8221 20.2866 59.5145C19.0044 59.7425 17.7 59.8427 16.4059 60.0017H11.0151C10.7865 59.9663 10.5579 59.9291 10.3287 59.8955C8.96072 59.6945 7.56876 59.5853 6.22841 59.2757C3.47989 58.6409 1.63135 56.9645 0.839974 54.2183C0.630721 53.4877 0.468394 52.7443 0.353989 51.9929C0.200994 50.9951 0.113996 49.9877 0 48.9845V43.4765Z" fill="#FFFCF8"/>
<path d="M43.5923 60C42.5675 59.8854 41.5379 59.8008 40.5186 59.646C39.7484 59.5302 38.9867 59.3634 38.2386 59.1468C35.2123 58.26 33.6458 56.1 33.0446 53.1144C32.4434 50.1288 32.411 47.1006 32.5646 44.0784C32.6433 42.3866 32.8405 40.7025 33.155 39.0384C33.815 35.6184 36.0247 33.7188 39.3792 33.048C42.3677 32.448 45.3928 32.4012 48.4137 32.5716C50.2539 32.6754 52.1084 32.8872 53.9065 33.2796C56.8074 33.9126 58.5864 35.8296 59.2686 38.697C59.577 39.9996 59.6886 41.3496 59.8854 42.678C59.9304 42.9828 59.9616 43.29 59.9994 43.596V48.987C59.9628 49.2354 59.9238 49.4832 59.8902 49.7322C59.7288 50.9322 59.6382 52.1412 59.394 53.3214C58.8324 56.04 57.4026 58.0962 54.6631 59.0082C53.8109 59.2844 52.9388 59.495 52.0544 59.6382C51.0392 59.8098 50.0079 59.8854 48.9843 60.0024L43.5923 60Z" fill="#FFFCF8"/>
<path d="M48.7473 16.26C48.7473 18.3979 48.7599 20.445 48.7425 22.4922C48.7329 23.5441 48.2319 24.3306 47.2726 24.7644C46.3618 25.1766 45.4756 25.0603 44.6854 24.4423C44.0063 23.9107 43.7393 23.1762 43.7393 22.3308C43.7393 20.5536 43.7393 18.7768 43.7393 17.0004V16.2889C43.5065 16.2787 43.3007 16.2612 43.0955 16.2612C41.2799 16.2612 39.4638 16.2714 37.6483 16.2558C36.2083 16.2432 35.1283 15.3084 35.0251 14.0154C34.8997 12.4782 35.9809 11.2674 37.5259 11.2554C39.3612 11.2392 41.1965 11.2513 43.0319 11.2513H43.7099C43.7213 10.9981 43.7387 10.791 43.7387 10.5834C43.7387 8.74805 43.7267 6.91265 43.7459 5.07725C43.7585 3.86945 44.4766 2.90945 45.5374 2.60285C46.5982 2.29625 47.7945 2.69645 48.3321 3.66005C48.5792 4.12031 48.7154 4.63188 48.7299 5.15405C48.7767 6.94925 48.7485 8.74625 48.7485 10.5427V11.25H49.4121C51.2276 11.25 53.0438 11.2446 54.8593 11.25C56.3701 11.2554 57.4836 12.306 57.4992 13.725C57.5178 15.1254 56.4037 16.2324 54.9013 16.2516C53.0858 16.275 51.2702 16.2577 49.4541 16.2583L48.7473 16.26Z" fill="#FF8000"/>
</g>
<defs>
<clipPath id="clip0_215_58">
<rect width="59.9981" height="60" fill="white"/>
</clipPath>
</defs>
</svg>
