<svg width="61" height="60" viewBox="0 0 61 60" fill="none" xmlns="http://www.w3.org/2000/svg">
<g clip-path="url(#clip0_215_84)">
<path fill-rule="evenodd" clip-rule="evenodd" d="M43.7627 19.3136C43.5205 19.3243 43.278 19.3227 43.036 19.3089C42.6607 19.2702 42.4315 19.0572 42.4117 18.6697C42.3919 18.2823 42.5809 18.0068 42.961 17.975C43.5091 17.9294 44.06 17.9255 44.6088 17.9634C44.9929 17.9892 45.1853 18.2884 45.1785 18.6521C45.1818 18.8088 45.1265 18.9611 45.0232 19.0795C44.92 19.1978 44.7761 19.2738 44.6197 19.2926C44.4265 19.3231 44.227 19.3156 44.0277 19.3081C43.9392 19.3048 43.8506 19.3014 43.7627 19.3014V19.3136ZM37.6084 19.4772C37.6084 19.2912 37.6589 19.1101 37.8131 19.0124C38.3753 18.6562 38.9866 18.3977 39.6553 18.3413C39.9637 18.3149 40.1923 18.5401 40.2694 18.8475C40.3547 19.1868 40.2264 19.4744 39.9105 19.6135C39.4298 19.8313 38.9346 20.0161 38.4285 20.1665C37.9782 20.2927 37.5906 19.9345 37.6084 19.4772ZM33.6376 26.2246L33.6376 26.2247C33.5774 26.5877 33.5203 26.9319 33.4355 27.2691C33.3468 27.6233 33.0786 27.8356 32.6931 27.7854C32.2837 27.7318 32.0422 27.4516 32.079 27.0567C32.1342 26.5332 32.2356 26.0156 32.382 25.5097C32.4823 25.1569 32.7832 24.9778 33.1612 25.0619C33.3183 25.0886 33.4608 25.1697 33.5637 25.2907C33.6666 25.4117 33.7231 25.565 33.7234 25.7235C33.6923 25.895 33.6647 26.0617 33.6376 26.2246ZM53.8722 43.9853C53.8504 44.3727 53.7003 44.6075 53.4041 44.7154C53.108 44.8233 52.8051 44.769 52.6386 44.4962C52.354 44.0279 52.0966 43.5438 51.8676 43.0463C51.7311 42.7565 51.8491 42.4804 52.1057 42.2911C52.3622 42.1018 52.6741 42.0631 52.8985 42.2911C53.367 42.755 53.6139 43.3564 53.8394 43.9054L53.8722 43.9853ZM54.0847 52.507L54.1295 52.3859C54.152 52.027 54.021 51.7637 53.6928 51.6368C53.3339 51.4991 53.0186 51.6022 52.8426 51.936C52.6079 52.3825 52.4066 52.848 52.2176 53.3154C52.0736 53.6784 52.2231 53.9675 52.5513 54.1453C52.861 54.3135 53.1776 54.2592 53.3823 53.979C53.707 53.5311 53.8984 53.0123 54.0847 52.507ZM33.9253 22.2583C33.6483 22.7292 34.0147 23.2958 34.6035 23.2761C34.6159 23.2713 34.6341 23.267 34.6556 23.2618C34.7136 23.2479 34.7954 23.2283 34.8492 23.1797C35.3179 22.7475 35.7505 22.2766 36.0685 21.725C36.2329 21.4401 36.076 21.1612 35.8331 20.9732C35.5554 20.7575 35.2429 20.7677 34.9836 20.9984C34.5654 21.3595 34.2082 21.7848 33.9253 22.2583ZM35.3943 34.1287C35.4823 34.1215 35.5709 34.1319 35.6548 34.1593C35.7387 34.1866 35.8163 34.2305 35.8828 34.2881C35.9811 34.3745 36.0799 34.4602 36.1788 34.5459C36.4289 34.7628 36.6792 34.9797 36.9193 35.2068C37.2161 35.4877 37.2604 35.8283 37.0012 36.1486C36.7419 36.4688 36.3871 36.5218 36.0643 36.2714C35.6495 35.9463 35.2559 35.5953 34.886 35.2204C34.6888 35.0223 34.6629 34.7536 34.8089 34.4883C34.862 34.3792 34.9452 34.2874 35.0489 34.2237C35.1526 34.16 35.2724 34.127 35.3943 34.1287ZM54.0653 46.7529C53.5487 46.7556 53.3536 47.1424 53.4123 48.0808C53.4123 48.1583 53.4104 48.236 53.4086 48.3137V48.3137V48.3138V48.3138V48.3139V48.3139V48.314V48.314V48.3141V48.3141V48.3142V48.3143V48.3143V48.3144V48.3144C53.4048 48.4784 53.4009 48.6424 53.4143 48.8047C53.4498 49.2254 53.6565 49.526 54.1137 49.5205C54.5708 49.5151 54.781 49.2274 54.8049 48.7986C54.8202 48.543 54.8128 48.2854 54.8055 48.029L54.8049 48.0082C54.7803 47.1193 54.5606 46.7529 54.0653 46.7529ZM49.7027 57.8885C49.5698 57.9009 49.4364 57.8721 49.3206 57.8062C49.2048 57.7402 49.1123 57.6403 49.0558 57.5201C48.9262 57.2799 48.9194 57.018 49.1063 56.8416C49.54 56.4374 49.9955 56.0571 50.471 55.7024C50.7104 55.5233 50.9875 55.6183 51.201 55.8055C51.3914 55.9724 51.489 56.1889 51.4276 56.4542C51.3334 56.8586 50.11 57.8763 49.7027 57.8885ZM44.5091 59.2571C44.58 59.635 44.8434 59.8033 45.2937 59.844C45.4335 59.806 45.5808 59.7688 45.7325 59.7304C46.0793 59.6428 46.4498 59.5492 46.8105 59.426C47.1681 59.3018 47.3025 58.9884 47.2035 58.6199C47.1046 58.2515 46.8208 58.0697 46.4482 58.1375C45.929 58.2334 45.4163 58.3612 44.913 58.5202C44.5814 58.626 44.4449 58.9124 44.5091 59.2571ZM47.9717 19.3089C48.2137 19.3227 48.4562 19.3243 48.6984 19.3136L48.695 19.3014C48.7829 19.3014 48.8714 19.3048 48.96 19.3081C49.1593 19.3156 49.3587 19.3231 49.552 19.2926C49.7084 19.2738 49.8522 19.1978 49.9555 19.0794C50.0588 18.9611 50.1141 18.8088 50.1108 18.6521C50.1176 18.2884 49.9252 17.9892 49.5404 17.9634C48.9918 17.9255 48.4412 17.9294 47.8933 17.975C47.5166 18.0068 47.3276 18.2823 47.3474 18.6697C47.3672 19.0572 47.5965 19.2702 47.9717 19.3089ZM34.1717 31.7838C34.156 32.2235 34.0018 32.4549 33.6941 32.5464C33.3686 32.6435 33.0622 32.5695 32.893 32.2561C32.6229 31.7523 32.434 31.2094 32.3335 30.6473C32.2735 30.3162 32.47 30.0448 32.8002 29.9376C33.0943 29.8419 33.4259 29.8881 33.5576 30.1751C33.7433 30.5775 33.8918 30.9978 34.0259 31.3776C34.0761 31.5197 34.1243 31.6561 34.1717 31.7838ZM40.328 38.193C40.4396 38.2168 40.5397 38.2381 40.6228 38.2581C41.2498 38.2982 41.5705 38.1584 41.6312 37.7004C41.6899 37.2553 41.4545 37.0036 41.0233 36.916C40.8624 36.8834 40.7023 36.8468 40.5421 36.8102L40.5421 36.8102L40.5421 36.8102L40.5421 36.8102L40.542 36.8102L40.542 36.8102L40.542 36.8102L40.542 36.8101L40.542 36.8101C40.2729 36.7486 40.004 36.6872 39.7324 36.6446C39.3346 36.5795 39.0289 36.7403 38.9313 37.1447C38.8338 37.5491 39.02 37.8456 39.4028 37.9643C39.7272 38.0648 40.0607 38.136 40.328 38.193ZM44.7977 37.087C44.8837 37.1044 44.9813 37.1226 45.087 37.1423L45.087 37.1423C45.361 37.1935 45.6894 37.2548 46.0129 37.338C46.4093 37.4385 46.6113 37.7234 46.5356 38.1278C46.4598 38.5322 46.1644 38.7174 45.7577 38.6706C45.3897 38.6254 45.024 38.56 44.6588 38.4947L44.4545 38.4583C44.0212 38.3816 43.7442 38.1346 43.794 37.6983C43.8479 37.2329 44.1836 37.0368 44.7977 37.087ZM50.8831 40.0276C50.7671 39.6599 49.4571 38.6781 49.0477 38.6835C48.9304 38.6916 48.8172 38.7291 48.7185 38.7926C48.6198 38.8561 48.5389 38.9435 48.4834 39.0465C48.3627 39.2738 48.3333 39.5425 48.5094 39.7304C48.946 40.1966 49.4803 40.5548 50.0377 40.8628C50.269 40.9911 50.5201 40.8669 50.6996 40.6871C50.879 40.5073 50.9664 40.2909 50.8831 40.0276ZM21.2272 59.9912C21.1537 59.9912 21.0802 59.992 21.0068 59.9928H21.0067H21.0066H21.0065H21.0065H21.0064C20.8597 59.9945 20.713 59.9961 20.5667 59.9912C20.1573 59.9715 19.8946 59.7584 19.8762 59.3466C19.8564 58.8994 20.1191 58.6484 20.5585 58.6253C21.0199 58.6023 21.4822 58.6023 21.9436 58.6253C22.3796 58.6464 22.6628 58.8967 22.6396 59.3357C22.6164 59.7747 22.3332 59.9939 21.889 59.9952C21.669 59.9925 21.449 59.9918 21.2303 59.9912H21.2302H21.2301H21.23H21.2299H21.2298L21.2272 59.9912ZM25.9328 59.9918C26.0062 59.9908 26.0795 59.9898 26.1527 59.9898C26.2356 59.9896 26.3184 59.9904 26.4013 59.9912C26.5606 59.9927 26.72 59.9943 26.8794 59.9885C27.2956 59.9715 27.546 59.7401 27.5685 59.3358C27.591 58.9314 27.3488 58.6606 26.9394 58.6349C26.4348 58.6033 25.9286 58.6033 25.424 58.6349C25.0091 58.664 24.7853 58.9307 24.8044 59.3425C24.8235 59.7544 25.0828 59.9702 25.4922 59.9898C25.6386 59.9957 25.7857 59.9938 25.9325 59.9918H25.9326H25.9327H25.9327H25.9328ZM30.8933 59.9926H30.8932H30.8927H30.8926H30.8924C30.7459 59.994 30.5992 59.9953 30.4525 59.9912C30.0117 59.9763 29.7374 59.7551 29.7319 59.3087C29.7272 58.8961 29.9755 58.6492 30.3849 58.6302C30.8681 58.6047 31.3523 58.6047 31.8355 58.6302C32.2449 58.6519 32.5062 58.9016 32.4973 59.3087C32.4878 59.7382 32.2244 59.9872 31.7734 59.996C31.6639 59.996 31.5542 59.9948 31.4445 59.9936H31.4442H31.4439H31.4437L31.4429 59.9936C31.333 59.9924 31.2229 59.9912 31.1129 59.9912C31.0399 59.9912 30.9668 59.9919 30.8936 59.9926H30.8935H30.8933ZM35.2776 59.981C35.5192 59.9948 35.7612 59.9964 36.0029 59.9858V59.9885C36.0837 59.9885 36.1645 59.9894 36.2453 59.9903H36.2456C36.4071 59.9921 36.5687 59.9939 36.7296 59.9885C37.1513 59.9742 37.3983 59.7449 37.4242 59.3405C37.4501 58.9361 37.2106 58.66 36.8012 58.6355C36.2749 58.6031 35.7468 58.6069 35.221 58.6471C34.8369 58.6776 34.6458 58.9565 34.6595 59.3351C34.6731 59.7137 34.8976 59.943 35.2776 59.981ZM40.9086 59.9844C40.8343 59.9844 40.7597 59.9867 40.685 59.989C40.5167 59.9942 40.3482 59.9994 40.1833 59.9783C39.8067 59.9301 39.5911 59.6913 39.587 59.312C39.5829 58.9687 39.7562 58.7074 40.1083 58.6518C40.6735 58.565 41.2488 58.565 41.814 58.6518C42.1648 58.7034 42.3599 58.9619 42.3531 59.3004C42.3497 59.6662 42.1484 59.9315 41.7629 59.979C41.5676 60.002 41.3688 59.9964 41.1698 59.9907L41.1695 59.9907C41.0813 59.9882 40.9931 59.9857 40.9052 59.9857L40.9086 59.9844ZM15.7415 59.6431C15.9517 60.0156 16.314 60.0095 16.6115 59.9952C17.2331 59.9945 17.4767 59.9165 17.622 59.6567C17.7932 59.354 17.755 59.0589 17.5033 58.8112C17.2065 58.5195 16.1775 58.5113 15.8732 58.8017C15.6201 59.0433 15.5682 59.3337 15.7415 59.6431Z" fill="#FFFCF8"/>
<path d="M12.8506 26.2629C12.1267 26.233 11.2663 26.3443 10.41 26.5106C3.87436 27.7773 -1.06544 34.525 1.85204 41.3542C4.64535 47.8936 8.59992 53.8162 12.6521 59.7009C12.9611 60.1507 13.1392 59.9967 13.3664 59.6595C13.7314 59.1167 14.1169 58.5881 14.4854 58.0474C17.7502 53.2422 20.9344 48.395 23.3484 43.1529C24.1712 41.3657 24.9736 39.5493 25.02 37.5715C25.164 31.389 19.6988 26.269 12.8506 26.2629ZM13.0144 43.56C11.8403 43.56 10.6927 43.2138 9.71652 42.5651C8.74036 41.9165 7.97953 40.9946 7.53025 39.916C7.08098 38.8373 6.96343 37.6505 7.19247 36.5054C7.42151 35.3603 7.98685 34.3085 8.81701 33.483C9.64716 32.6574 10.7048 32.0952 11.8563 31.8674C13.0078 31.6397 14.2013 31.7566 15.2859 32.2034C16.3706 32.6501 17.2977 33.4067 17.9499 34.3775C18.6022 35.3482 18.9503 36.4895 18.9503 37.657C18.9503 39.2226 18.3249 40.724 17.2117 41.831C16.0985 42.9381 14.5887 43.56 13.0144 43.56Z" fill="#FF8000"/>
<path d="M54.0372 3.60558e-05C53.6231 -0.0142125 53.1318 0.0495667 52.644 0.143879C48.9091 0.867841 46.0864 4.72377 47.754 8.62516C49.3499 12.3617 51.6096 15.7494 53.9246 19.1087C54.102 19.3659 54.2037 19.2777 54.334 19.085C54.5428 18.7756 54.7632 18.4743 54.9733 18.1642C56.8387 15.4183 58.6577 12.648 60.038 9.65242C60.5081 8.63059 60.9666 7.59248 60.9932 6.46345C61.0737 2.93185 57.9502 0.00614258 54.0372 3.60558e-05ZM54.1307 9.88379C53.4598 9.88379 52.8039 9.6859 52.2461 9.31517C51.6883 8.94444 51.2535 8.41751 50.9969 7.80105C50.7403 7.18459 50.6733 6.50628 50.8044 5.85194C50.9355 5.1976 51.2588 4.59662 51.7334 4.12503C52.208 3.65344 52.8126 3.33242 53.4707 3.20259C54.1288 3.07275 54.8108 3.13993 55.4305 3.39563C56.0502 3.65133 56.5797 4.08406 56.9521 4.63908C57.3244 5.19409 57.5229 5.84646 57.5224 6.51366C57.5225 6.95662 57.4348 7.39525 57.2644 7.8045C57.094 8.21375 56.8441 8.5856 56.5292 8.89882C56.2142 9.21203 55.8403 9.46047 55.4287 9.62994C55.0172 9.79941 54.5761 9.88659 54.1307 9.8865V9.88379Z" fill="#FF8000"/>
</g>
<defs>
<clipPath id="clip0_215_84">
<rect width="59.9981" height="60" fill="white" transform="translate(0.994385)"/>
</clipPath>
</defs>
</svg>
