<svg width="27" height="18" viewBox="0 0 27 18" fill="none" xmlns="http://www.w3.org/2000/svg">
<path d="M1.5 18C1.075 18 0.71875 17.8563 0.43125 17.5688C0.14375 17.2812 0 16.925 0 16.5C0 16.075 0.14375 15.7188 0.43125 15.4313C0.71875 15.1438 1.075 15 1.5 15H25.5C25.925 15 26.2812 15.1438 26.5687 15.4313C26.8562 15.7188 27 16.075 27 16.5C27 16.925 26.8562 17.2812 26.5687 17.5688C26.2812 17.8563 25.925 18 25.5 18H1.5ZM1.5 10.5C1.075 10.5 0.71875 10.3562 0.43125 10.0688C0.14375 9.78125 0 9.425 0 9C0 8.575 0.14375 8.21875 0.43125 7.93125C0.71875 7.64375 1.075 7.5 1.5 7.5H25.5C25.925 7.5 26.2812 7.64375 26.5687 7.93125C26.8562 8.21875 27 8.575 27 9C27 9.425 26.8562 9.78125 26.5687 10.0688C26.2812 10.3562 25.925 10.5 25.5 10.5H1.5ZM1.5 3C1.075 3 0.71875 2.85625 0.43125 2.56875C0.14375 2.28125 0 1.925 0 1.5C0 1.075 0.14375 0.71875 0.43125 0.43125C0.71875 0.14375 1.075 0 1.5 0H25.5C25.925 0 26.2812 0.14375 26.5687 0.43125C26.8562 0.71875 27 1.075 27 1.5C27 1.925 26.8562 2.28125 26.5687 2.56875C26.2812 2.85625 25.925 3 25.5 3H1.5Z" fill="#FFFCF8"/>
</svg>
