<svg width="61" height="60" viewBox="0 0 61 60" fill="none" xmlns="http://www.w3.org/2000/svg">
<path d="M43.0599 3.92279C43.0792 2.98129 43.4945 2.26556 44.3186 1.84821C45.2082 1.39973 46.0798 1.51688 46.8485 2.15329C48.0675 3.16374 49.2673 4.19798 50.4749 5.22367C51.3579 5.97358 52.2577 6.70578 53.1196 7.48131C53.8608 8.1525 54.1006 9.0165 53.7772 9.97752C53.4634 10.9111 52.7758 11.5029 51.8159 11.5274C51.2821 11.542 50.6269 11.3821 50.22 11.0533C48.0561 9.30572 45.9523 7.48558 43.8401 5.67703C43.3148 5.23283 43.0485 4.6373 43.0599 3.92279Z" fill="#FF8000"/>
<path d="M13.3827 3.90019C13.4008 4.65985 13.0948 5.27063 12.5376 5.74596C10.4807 7.50142 8.42681 9.26176 6.34647 10.9934C5.28135 11.8806 3.90247 11.7366 3.06035 10.7152C2.25009 9.73099 2.3643 8.30868 3.38974 7.42027C5.43342 5.65077 7.50355 3.90934 9.57368 2.16913C10.3401 1.5254 11.2104 1.3997 12.1048 1.83964C12.9319 2.24662 13.3545 2.9593 13.3827 3.90019Z" fill="#FF8000"/>
<path d="M60.6224 37.6634C60.2863 37.1391 59.7595 36.7711 59.157 36.6396C58.5545 36.5081 57.9253 36.624 57.4066 36.9618L54.6687 38.7587C55.9442 33.5076 55.634 28.1417 53.6901 22.6746C51.7697 17.2801 48.379 12.9906 43.7969 9.68464C40.9856 7.65643 37.8865 6.22375 34.5108 5.46226C33.2076 5.16876 31.8841 4.96802 30.5256 4.71724C30.5256 4.13025 30.4932 3.52557 30.5322 2.92516C30.6254 1.47417 30.0592 0.477764 28.6821 0H27.7606C26.3848 0.477764 25.8167 1.47295 25.9105 2.92394C25.9496 3.52374 25.9171 4.12842 25.9171 4.71785C24.5611 4.96802 23.2381 5.16815 21.9356 5.46104C18.5611 6.22375 15.4625 7.65399 12.653 9.68037C8.03794 13.0076 4.57391 17.3136 2.72979 22.7747C-0.660916 32.812 0.892881 42.0628 7.55768 50.2684C11.541 55.1723 16.7278 58.1841 22.866 59.4521C23.8963 59.6644 24.9524 59.748 25.9965 59.8951C26.1636 59.9188 26.3277 59.9646 26.493 60H29.7196C29.8272 59.9636 29.9378 59.937 30.0502 59.9207C32.9274 59.7389 35.7564 59.0831 38.4262 57.9791C40.5304 57.1221 42.5151 55.9896 44.3301 54.6104C45.7228 53.548 45.543 51.4521 44.0187 50.6625C43.0702 50.1707 42.204 50.4032 41.3776 51.0018C38.2399 53.2753 34.7656 54.6714 30.9325 55.1357C26.1089 55.7203 21.5593 54.8166 17.3265 52.4345C12.9806 49.9895 9.74441 46.4432 7.68751 41.8297C5.59875 37.1411 5.09745 32.2781 6.22147 27.2521C7.19583 22.8949 9.25754 19.1313 12.3874 16.0115C16.313 12.0973 21.0478 9.90247 26.538 9.45766C31.0029 9.09156 35.2104 10.0532 39.1127 12.2541C43.4405 14.6948 46.6671 18.2185 48.73 22.8046C50.7304 27.249 51.2842 31.8772 50.3914 36.689C50.3281 37.0295 50.2565 37.3667 50.1768 37.7007L48.9145 33.9323C48.7144 33.3405 48.2918 32.8532 47.7389 32.5768C47.186 32.3004 46.5479 32.2572 45.9638 32.4569C45.3813 32.6601 44.9016 33.089 44.6293 33.6499C44.357 34.2108 44.3143 34.8582 44.5104 35.451L47.7995 45.2747C47.9214 45.6186 48.1169 45.9308 48.3719 46.1888C48.6269 46.4468 48.935 46.6441 49.2742 46.7667C49.6134 46.8892 49.9751 46.9339 50.3333 46.8975C50.6916 46.8611 51.0374 46.7445 51.3459 46.5561L59.9299 40.926C60.4462 40.585 60.8086 40.0507 60.9383 39.4396C61.068 38.8284 60.9545 38.19 60.6224 37.6634Z" fill="#FFFCF8"/>
<path d="M37.7397 22.206C35.4155 24.5885 33.0995 26.9783 30.7918 29.3755C30.5255 29.6513 30.2815 29.874 29.928 29.6995C29.2502 29.6119 28.5617 29.6871 27.9177 29.919C27.2738 30.1509 26.6925 30.533 26.2206 31.0345C26.1755 31.0205 26.1292 31.0071 26.0823 30.9955L15.2232 28.3797C14.6725 28.2479 14.0929 28.343 13.6112 28.6442C13.1295 28.9453 12.7849 29.4278 12.6529 29.9863C12.524 30.5449 12.6181 31.1325 12.9147 31.6209C13.2112 32.1093 13.6861 32.4588 14.2356 32.5929L25.0953 35.2069C25.1512 35.2203 25.2077 35.2313 25.2642 35.2398C25.5618 36.2918 26.2368 37.1387 27.2965 37.7239C28.8407 38.5781 30.4137 38.4622 31.8263 37.3858C33.1775 36.3558 33.7118 34.9384 33.4774 33.2196C33.4572 32.9672 33.5365 32.717 33.698 32.524C34.8401 31.3036 36.0146 30.1107 37.1789 28.9099C38.3678 27.6829 39.5646 26.4644 40.7451 25.2288C41.7068 24.222 41.6894 22.8491 40.7289 21.9948C39.8459 21.2108 38.6395 21.2834 37.7397 22.206Z" fill="#FF8000"/>
</svg>
