<svg width="205" height="68" viewBox="0 0 205 68" fill="none" xmlns="http://www.w3.org/2000/svg">
<path d="M16 55.6242C16 55.6242 21.0439 78.9345 71.6041 58.819C94.1472 49.8522 25.9054 34.4438 57.6271 15.4855C106.607 -13.7861 106 13.0267 106 13.0267" stroke="#FF8000" stroke-width="1.5" stroke-miterlimit="10" stroke-linecap="round" stroke-dasharray="8 8"/>
<path d="M16.9718 12.4066C12.4706 12.4066 8.15376 14.1618 4.97093 17.286C1.7881 20.4103 0 24.6478 0 29.0662C0 38.269 9.8546 55.3992 15.8769 55.3992C21.3516 55.3992 33.9436 38.269 33.9436 29.0662C33.9436 24.6478 32.1555 20.4103 28.9727 17.286C25.7899 14.1618 21.473 12.4066 16.9718 12.4066ZM15.8769 51.0999C13.1395 51.0999 4.37982 35.8948 4.37982 29.0662C4.37982 27.443 4.70552 25.8357 5.33833 24.3361C5.97114 22.8364 6.89865 21.4739 8.06793 20.3261C9.2372 19.1783 10.6253 18.2679 12.1531 17.6467C13.6808 17.0255 15.3182 16.7058 16.9718 16.7058C18.6254 16.7058 20.2628 17.0255 21.7906 17.6467C23.3183 18.2679 24.7064 19.1783 25.8757 20.3261C27.045 21.4739 27.9725 22.8364 28.6053 24.3361C29.2381 25.8357 29.5638 27.443 29.5638 29.0662C29.5638 35.8948 18.6142 51.0999 15.8769 51.0999Z" fill="#FF8000"/>
<path d="M16.9718 35.5151C20.6002 35.5151 23.5415 32.6278 23.5415 29.0662C23.5415 25.5046 20.6002 22.6173 16.9718 22.6173C13.3434 22.6173 10.4021 25.5046 10.4021 29.0662C10.4021 32.6278 13.3434 35.5151 16.9718 35.5151Z" fill="#FF8000"/>
<path d="M105.967 20.0497C105.967 20.0497 79.5668 71.2825 128.961 66.5055C178.356 61.7286 135.497 26.8568 149.522 10.9735C163.757 -5.14877 197.331 -1.94491 192.218 22.1918" stroke="#FF8000" stroke-width="1.5" stroke-miterlimit="10" stroke-linecap="round" stroke-dasharray="8 8"/>
<path d="M46.1682 22.1778H49.9129C50.1711 22.1778 50.4186 22.2785 50.6012 22.4576C50.7837 22.6368 50.8862 22.8798 50.8862 23.1332V54.5441C50.8862 54.7975 50.7837 55.0405 50.6012 55.2196C50.4186 55.3988 50.1711 55.4995 49.9129 55.4995H46.1682C45.9101 55.4995 45.6625 55.3988 45.48 55.2196C45.2974 55.0405 45.1949 54.7975 45.1949 54.5441V23.1332C45.1949 22.8798 45.2974 22.6368 45.48 22.4576C45.6625 22.2785 45.9101 22.1778 46.1682 22.1778ZM65.9626 35.3144C65.9626 32.6632 65.3137 30.6091 64.016 29.1522C62.7182 27.6952 60.8601 26.9675 58.4414 26.9691C56.0423 26.9691 54.1833 27.6164 52.8645 28.9109C51.5456 30.2055 50.8862 32.0366 50.8862 34.4044L50.2293 28.2708C50.21 28.0832 50.2463 27.8941 50.3339 27.7262C51.4078 25.7374 52.7866 24.2454 54.4704 23.2502C56.285 22.1957 58.3623 21.6566 60.4707 21.693C62.8261 21.693 64.8425 22.2224 66.5198 23.2813C68.1971 24.3402 69.4729 25.8863 70.3472 27.9197C71.2183 29.9547 71.6539 32.4053 71.6539 35.2714V54.5441C71.6539 54.7975 71.5513 55.0405 71.3688 55.2196C71.1863 55.3988 70.9387 55.4995 70.6806 55.4995H66.9358C66.6777 55.4995 66.4301 55.3988 66.2476 55.2196C66.0651 55.0405 65.9626 54.7975 65.9626 54.5441V35.3144ZM86.7278 35.3144C86.7278 32.6632 86.0578 30.6091 84.7179 29.1522C83.378 27.6952 81.4987 26.9651 79.0801 26.9619C76.7053 26.9619 74.8739 27.6681 73.5859 29.0805C72.2979 30.4929 71.6547 32.4833 71.6563 35.0517L70.0772 29.766C70.0125 29.5506 70.0271 29.3198 70.1185 29.114C71.1713 26.7876 72.585 24.9843 74.3596 23.704C76.2189 22.3621 78.476 21.6572 80.7834 21.6977C83.2263 21.6977 85.3189 22.2272 87.0611 23.2861C88.8462 24.3919 90.2398 26.0119 91.0516 27.9245C91.9665 29.9595 92.4248 32.4101 92.4264 35.2762V54.5441C92.4264 54.7975 92.3239 55.0405 92.1413 55.2196C91.9588 55.3988 91.7112 55.4995 91.4531 55.4995H87.7011C87.4429 55.4995 87.1954 55.3988 87.0128 55.2196C86.8303 55.0405 86.7278 54.7975 86.7278 54.5441V35.3144Z" fill="#FFFCF8"/>
<path d="M104.021 22.1778H107.763C108.021 22.1778 108.269 22.2785 108.451 22.4576C108.634 22.6368 108.736 22.8798 108.736 23.1332V54.5441C108.736 54.7975 108.634 55.0405 108.451 55.2196C108.269 55.3988 108.021 55.4995 107.763 55.4995H104.021C103.763 55.4995 103.515 55.3988 103.333 55.2196C103.15 55.0405 103.047 54.7975 103.047 54.5441V23.1332C103.047 22.8798 103.15 22.6368 103.333 22.4576C103.515 22.2785 103.763 22.1778 104.021 22.1778Z" fill="#FFFCF8"/>
<path d="M125.725 55.435C124.041 55.0868 122.407 54.5373 120.859 53.7989C119.664 53.229 118.537 52.5314 117.498 51.7185C117.399 51.6392 117.317 51.5415 117.257 51.4309C117.196 51.3204 117.158 51.1993 117.145 51.0744C117.132 50.9495 117.145 50.8233 117.182 50.7031C117.218 50.5829 117.279 50.471 117.36 50.3738L119.518 47.7751C119.672 47.5911 119.89 47.47 120.13 47.4356C120.37 47.4011 120.614 47.4558 120.815 47.5888C122.327 48.6068 123.961 49.4363 125.681 50.0585C127.449 50.7086 129.319 51.0506 131.207 51.0688C134.152 51.0688 136.397 50.5983 137.945 49.6573C138.677 49.2456 139.28 48.6451 139.689 47.921C140.098 47.1968 140.298 46.3766 140.266 45.5491C140.266 44.2641 139.874 43.3087 139.089 42.6829C138.228 42.016 137.208 41.5769 136.125 41.4075C134.942 41.1957 133.292 41.0038 131.173 40.8318H131.105C130.918 40.8318 130.723 40.8318 130.516 40.8151C130.309 40.7984 130.09 40.7888 129.896 40.7673C129.808 40.7677 129.72 40.7621 129.633 40.7506C129.547 40.7411 129.46 40.7363 129.373 40.7363C127.475 40.6031 125.596 40.2831 123.764 39.7809C122.269 39.3444 120.946 38.4703 119.971 37.2754C118.955 36.0557 118.448 34.3041 118.45 32.0207C118.45 29.7724 118.962 27.8895 119.985 26.372C121.009 24.8545 122.513 23.6985 124.499 22.9039C126.484 22.1078 128.927 21.7097 131.825 21.7097C133.412 21.7075 134.994 21.8579 136.551 22.1587C138.07 22.4537 139.555 22.9002 140.982 23.4915C142.056 23.937 143.09 24.4716 144.072 25.0894C144.186 25.1632 144.284 25.26 144.357 25.3733C144.431 25.4866 144.48 25.6139 144.5 25.7469C144.52 25.88 144.512 26.0157 144.475 26.1452C144.438 26.2747 144.374 26.3951 144.286 26.4986L142.133 29.0423C141.987 29.2117 141.786 29.3262 141.564 29.3663C141.342 29.4064 141.113 29.3695 140.916 29.262C139.549 28.4841 138.099 27.8569 136.592 27.3919C135.019 26.8955 133.378 26.6354 131.726 26.6204C129.153 26.6204 127.191 27.0702 125.84 27.9699C124.488 28.8695 123.813 30.1744 123.813 31.8846C123.813 33.0199 124.183 33.8599 124.925 34.4044C125.762 34.9837 126.729 35.3542 127.745 35.484C128.892 35.6656 130.489 35.8248 132.536 35.9617C132.651 35.9616 132.767 35.9672 132.881 35.9784C132.995 35.9897 133.11 35.9953 133.224 35.9952H133.419C133.486 35.995 133.553 36.0055 133.616 36.0262C135.665 36.125 137.698 36.4316 139.682 36.941C141.339 37.3959 142.809 38.35 143.884 39.6686C145.02 41.0301 145.588 42.9942 145.588 45.561C145.588 47.8285 145.043 49.7329 143.953 51.2743C142.863 52.8156 141.24 53.9876 139.086 54.7901C136.94 55.5863 134.307 55.9843 131.188 55.9843C129.352 55.9907 127.521 55.8066 125.725 55.435Z" fill="#FFFCF8"/>
<path d="M152.452 22.1778H165.81C166.068 22.1778 166.316 22.2785 166.499 22.4577C166.681 22.6368 166.784 22.8798 166.784 23.1332V26.1666C166.784 26.42 166.681 26.663 166.499 26.8421C166.316 27.0213 166.068 27.122 165.81 27.122H152.452C152.194 27.122 151.946 27.0213 151.764 26.8421C151.581 26.663 151.479 26.42 151.479 26.1666V23.1332C151.479 22.8798 151.581 22.6368 151.764 22.4577C151.946 22.2785 152.194 22.1778 152.452 22.1778ZM156.89 53.4287C155.615 51.9399 154.978 49.7409 154.978 46.8317V13.4408C154.978 13.1874 155.08 12.9444 155.263 12.7652C155.445 12.586 155.693 12.4854 155.951 12.4854H159.696C159.954 12.4854 160.201 12.586 160.384 12.7652C160.566 12.9444 160.669 13.1874 160.669 13.4408V46.901C160.669 48.0363 160.912 48.9033 161.399 49.502C161.886 50.1007 162.611 50.4001 163.574 50.4001H165.805C166.064 50.4001 166.311 50.5007 166.494 50.6799C166.676 50.8591 166.779 51.1021 166.779 51.3555V54.6993C166.779 54.9527 166.676 55.1957 166.494 55.3749C166.311 55.5541 166.064 55.6547 165.805 55.6547H162.925C160.178 55.6579 158.167 54.9159 156.89 53.4287Z" fill="#FFFCF8"/>
<path d="M187.724 44.6271C191.07 44.6271 193.783 41.9644 193.783 38.6798C193.783 35.3952 191.07 32.7325 187.724 32.7325C184.378 32.7325 181.665 35.3952 181.665 38.6798C181.665 41.9644 184.378 44.6271 187.724 44.6271Z" fill="#FF8000"/>
<path d="M187.724 21.7216C184.307 21.7216 180.967 22.7162 178.126 24.5796C175.285 26.443 173.071 29.0915 171.763 32.1902C170.456 35.2889 170.113 38.6986 170.78 41.9882C171.447 45.2778 173.092 48.2994 175.508 50.6711C177.924 53.0427 181.002 54.6578 184.354 55.3122C187.705 55.9665 191.179 55.6307 194.335 54.3471C197.492 53.0636 200.19 50.89 202.089 48.1013C203.987 45.3125 205 42.0338 205 38.6798C205 34.1822 203.18 29.8688 199.94 26.6886C196.7 23.5083 192.306 21.7216 187.724 21.7216ZM187.724 50.3523C185.372 50.3523 183.073 49.6677 181.118 48.3851C179.162 47.1025 177.638 45.2795 176.738 43.1467C175.838 41.0138 175.603 38.6669 176.061 36.4026C176.52 34.1384 177.653 32.0585 179.316 30.4261C180.979 28.7937 183.098 27.682 185.404 27.2316C187.711 26.7812 190.102 27.0124 192.275 27.8958C194.447 28.7793 196.305 30.2754 197.611 32.1949C198.918 34.1145 199.615 36.3712 199.615 38.6798C199.615 40.2127 199.308 41.7305 198.71 43.1467C198.113 44.5629 197.237 45.8496 196.132 46.9335C195.028 48.0174 193.717 48.8772 192.275 49.4638C190.832 50.0504 189.286 50.3523 187.724 50.3523Z" fill="#FFFCF8"/>
<path d="M105.967 12.4066C105.197 12.4066 104.445 12.6307 103.804 13.0506C103.164 13.4705 102.665 14.0674 102.371 14.7657C102.076 15.464 101.999 16.2324 102.149 16.9737C102.299 17.715 102.67 18.3959 103.214 18.9304C103.759 19.4648 104.453 19.8288 105.208 19.9763C105.963 20.1237 106.746 20.048 107.457 19.7588C108.169 19.4695 108.777 18.9797 109.204 18.3513C109.632 17.7228 109.861 16.984 109.861 16.2281C109.861 15.2146 109.45 14.2425 108.72 13.5259C107.99 12.8092 107 12.4066 105.967 12.4066ZM105.967 18.8554C105.438 18.8554 104.921 18.7014 104.48 18.4127C104.04 18.124 103.697 17.7136 103.495 17.2336C103.292 16.7535 103.239 16.2252 103.342 15.7156C103.446 15.2059 103.7 14.7378 104.075 14.3703C104.449 14.0029 104.926 13.7527 105.445 13.6513C105.964 13.5499 106.503 13.6019 106.992 13.8008C107.481 13.9996 107.899 14.3364 108.193 14.7685C108.487 15.2005 108.644 15.7085 108.644 16.2281C108.645 16.5735 108.576 16.9157 108.442 17.235C108.307 17.5543 108.11 17.8445 107.862 18.089C107.613 18.3335 107.318 18.5274 106.993 18.6598C106.668 18.7921 106.319 18.8602 105.967 18.8602V18.8554Z" fill="#FFFCF8"/>
<path d="M105.967 17.5681C106.721 17.5681 107.332 16.9681 107.332 16.2281C107.332 15.4881 106.721 14.8882 105.967 14.8882C105.213 14.8882 104.602 15.4881 104.602 16.2281C104.602 16.9681 105.213 17.5681 105.967 17.5681Z" fill="#FF8000"/>
</svg>
