<svg width="32" height="32" viewBox="0 0 32 32" fill="none" xmlns="http://www.w3.org/2000/svg">
<mask id="mask0_335_1822" style="mask-type:alpha" maskUnits="userSpaceOnUse" x="0" y="0" width="32" height="32">
<rect width="32" height="32" fill="#D9D9D9"/>
</mask>
<g mask="url(#mask0_335_1822)">
<path d="M15.9999 12L11.3333 7.33333L15.9999 2.66667L20.6666 7.33333L15.9999 12ZM1.33325 26.6667V21.3333C1.33325 20.5778 1.59436 19.9444 2.11659 19.4333C2.63881 18.9222 3.26659 18.6667 3.99992 18.6667H8.36659C8.81103 18.6667 9.23325 18.7778 9.63325 19C10.0333 19.2222 10.3555 19.5222 10.5999 19.9C11.2444 20.7667 12.0388 21.4444 12.9833 21.9333C13.9277 22.4222 14.9333 22.6667 15.9999 22.6667C17.0888 22.6667 18.1055 22.4222 19.0499 21.9333C19.9944 21.4444 20.7777 20.7667 21.3999 19.9C21.6888 19.5222 22.0277 19.2222 22.4166 19C22.8055 18.7778 23.211 18.6667 23.6333 18.6667H27.9999C28.7555 18.6667 29.3888 18.9222 29.8999 19.4333C30.411 19.9444 30.6666 20.5778 30.6666 21.3333V26.6667H21.3333V23.6333C20.5555 24.1889 19.7166 24.6111 18.8166 24.9C17.9166 25.1889 16.9777 25.3333 15.9999 25.3333C15.0444 25.3333 14.111 25.1833 13.1999 24.8833C12.2888 24.5833 11.4444 24.1556 10.6666 23.6V26.6667H1.33325ZM5.33325 17.3333C4.22214 17.3333 3.2777 16.9444 2.49992 16.1667C1.72214 15.3889 1.33325 14.4444 1.33325 13.3333C1.33325 12.2 1.72214 11.25 2.49992 10.4833C3.2777 9.71667 4.22214 9.33333 5.33325 9.33333C6.46659 9.33333 7.41659 9.71667 8.18325 10.4833C8.94992 11.25 9.33325 12.2 9.33325 13.3333C9.33325 14.4444 8.94992 15.3889 8.18325 16.1667C7.41659 16.9444 6.46659 17.3333 5.33325 17.3333ZM26.6666 17.3333C25.5555 17.3333 24.611 16.9444 23.8333 16.1667C23.0555 15.3889 22.6666 14.4444 22.6666 13.3333C22.6666 12.2 23.0555 11.25 23.8333 10.4833C24.611 9.71667 25.5555 9.33333 26.6666 9.33333C27.7999 9.33333 28.7499 9.71667 29.5166 10.4833C30.2833 11.25 30.6666 12.2 30.6666 13.3333C30.6666 14.4444 30.2833 15.3889 29.5166 16.1667C28.7499 16.9444 27.7999 17.3333 26.6666 17.3333Z" fill="#191008"/>
</g>
</svg>
