<svg width="61" height="60" viewBox="0 0 61 60" fill="none" xmlns="http://www.w3.org/2000/svg">
<g clip-path="url(#clip0_215_74)">
<path d="M45.5535 21.3081C45.5415 20.5405 45.5205 19.7759 45.4334 19.0131C45.2978 18.3651 45.1619 17.7167 45.0259 17.0679C44.9504 16.9359 44.8829 16.7996 44.8236 16.6598C42.5908 10.5065 36.135 7.10879 30.0663 8.20433C24.5665 9.19829 20.0386 13.8538 19.3735 19.3903C19.2907 20.1353 19.1827 20.8875 19.3261 21.6278C19.6862 23.4933 21.1802 24.6429 23.1074 24.5888C23.2623 24.5841 23.4177 24.5888 23.5726 24.5888C25.7141 23.8105 26.4278 22.8457 26.5388 20.6011C26.5567 20.3125 26.5969 20.0257 26.6589 19.7432C27.3239 16.535 30.9438 14.3908 34.0132 15.3777C36.6404 16.2225 38.2681 18.312 38.3443 20.938C38.4158 23.3857 36.8516 25.5851 34.3331 26.553C32.8458 27.1245 31.592 28.0038 30.6046 29.2491C28.9061 31.3926 28.5393 33.8653 28.8808 36.4693C29.1167 38.2635 30.6659 39.5296 32.4365 39.5266C34.1555 39.5237 35.716 38.2261 35.9855 36.4967C36.0858 35.8538 36.0311 35.186 36.0377 34.5301C36.0443 33.9027 36.306 33.472 36.9261 33.2504C37.8628 32.9172 38.7569 32.4763 39.5898 31.9368C42.3832 30.1254 44.1616 27.576 45.1465 24.451C45.347 23.4119 45.5703 22.3775 45.5535 21.3081Z" fill="#FF8000"/>
<path d="M32.442 42.916C30.469 42.9107 28.792 44.5689 28.7896 46.5276C28.7925 47.4823 29.1771 48.397 29.8594 49.0718C30.5417 49.7466 31.4661 50.1265 32.4306 50.1286C34.4426 50.1286 36.0464 48.5197 36.0392 46.5104C36.032 44.5546 34.3969 42.9208 32.442 42.916Z" fill="#FF8000"/>
<path d="M20.4935 43.1502C20.697 42.988 20.8092 42.7628 20.9274 42.5406C21.5739 41.3251 21.2029 40.1897 20.6699 39.055C20.1898 38.0343 20.2354 37.8768 21.0301 37.0771C23.2598 34.8379 24.3312 32.1139 24.4056 28.9972C24.4417 27.4786 24.0875 26.0153 23.572 24.59C23.4171 24.59 23.2616 24.5823 23.1068 24.59C21.1789 24.6441 19.6856 23.4945 19.3255 21.629C19.182 20.8887 19.2901 20.1366 19.3729 19.3915C18.5896 18.9679 17.8346 18.4932 16.9913 18.1801C14.2495 17.1618 11.4999 17.0692 8.73298 18.069C8.56406 18.1103 8.39772 18.1613 8.2348 18.2217C4.82921 19.7005 2.56102 22.1934 1.46444 25.7141C1.27237 26.3308 1.15053 26.9683 0.996277 27.5963V30.4961C1.13132 30.5555 1.10071 30.6845 1.11992 30.7932C1.30358 31.8359 1.57608 32.8554 2.06705 33.7988C3.11862 35.8188 6.15148 36.1159 7.3585 34.33C8.27982 33.2766 8.30263 32.1216 7.80505 30.8764C6.5062 27.6266 8.73358 24.0678 12.2466 23.7512C12.4027 23.7547 12.5587 23.7607 12.7148 23.7619C13.5317 23.7621 14.3373 23.9513 15.0673 24.3144C15.7972 24.6776 16.4313 25.2045 16.919 25.8533C17.4067 26.5021 17.7345 27.2547 17.8761 28.0511C18.0178 28.8475 17.9694 29.6657 17.7349 30.4403C17.4126 31.5162 16.7182 32.3308 15.9541 33.1174C14.531 34.583 13.8888 36.3725 13.9134 38.38C13.9332 40.002 14.534 41.489 15.3623 42.8484C16.4853 44.6872 19.2979 44.8137 20.4935 43.1502Z" fill="#FFFCF8"/>
<path d="M24.781 48.4478C24.2306 47.297 23.299 46.6423 21.9749 46.6156C20.5008 46.5235 19.2229 47.4254 18.7787 48.8732C18.3495 50.2735 18.9774 51.8248 20.2703 52.5567C21.6124 53.3172 23.1748 53.0849 24.2114 51.9715C25.1507 50.9152 25.3932 49.7281 24.781 48.4478Z" fill="#FFFCF8"/>
<path d="M45.4551 47.4189C45.3615 47.3232 45.2805 47.2109 45.173 47.1349C44.1022 46.378 42.6184 46.3881 41.4972 47.1533C40.4204 47.8882 39.8766 49.2862 40.1923 50.5178C40.6239 52.2122 42.3189 53.3024 43.9005 52.9037C45.2444 52.6607 46.101 51.8587 46.4461 50.5801C46.778 49.3503 46.4587 48.2655 45.4551 47.4189Z" fill="#FFFCF8"/>
<path d="M60.8738 26.1953C60.0785 21.7543 57.584 18.6666 53.361 16.9562C50.5676 15.961 47.788 15.961 45.0241 17.0703C45.1601 17.719 45.296 18.3674 45.4316 19.0154C45.5204 19.7782 45.5414 20.5429 45.5516 21.3105C45.5685 22.3799 45.3452 23.4118 45.1423 24.4492C45.3068 24.4616 45.371 24.3226 45.4646 24.2335C47.3673 22.4113 49.7915 22.1066 52.0969 23.4017C52.1876 23.4748 52.277 23.5503 52.3694 23.6204C54.1845 24.9868 54.9455 27.1328 54.3453 29.2003C53.7127 31.3843 51.8941 32.8487 49.6007 33.0484C47.5822 33.2236 45.9346 34.1142 44.5991 35.6108C43.5439 36.7931 43.0842 38.2344 42.7199 39.7232C42.1353 42.1134 43.8555 44.0526 46.3385 43.7971C47.8072 43.4804 48.6715 42.5655 49.0209 41.1414C49.0713 40.9352 49.1187 40.7255 49.1727 40.5241C49.4068 39.6371 49.6409 39.4547 50.5772 39.3288C55.2342 38.7037 58.4189 36.1966 60.2316 31.9279C60.6181 31.0183 60.7117 30.0374 60.9944 29.104V26.4359C60.8864 26.3889 60.8906 26.2897 60.8738 26.1953Z" fill="#FFFCF8"/>
</g>
<defs>
<clipPath id="clip0_215_74">
<rect width="59.9981" height="60" fill="white" transform="translate(0.996277)"/>
</clipPath>
</defs>
</svg>
