<svg width="90" height="14" viewBox="0 0 90 14" fill="none" xmlns="http://www.w3.org/2000/svg">
<path d="M85.9876 8.025L1.125 8C0.8 8 0.53125 7.89375 0.31875 7.68125C0.10625 7.46875 0 7.325 0 7C0 6.675 0.10625 6.4892 0.31875 6.2767C0.53125 6.0642 0.8 6 1.125 6H86.0251L82.8001 2.875C82.6001 2.675 82.5001 2.425 82.5001 2.125C82.5001 1.825 82.6126 1.5625 82.8376 1.3375C83.0626 1.1125 83.3251 1 83.6251 1C83.9251 1 84.1876 1.1125 84.4126 1.3375L89.1625 6.2125C89.2875 6.3375 89.375 6.4625 89.425 6.5875C89.475 6.7125 89.5 6.85 89.5 7C89.5 7.15 89.475 7.2875 89.425 7.4125C89.375 7.5375 89.2875 7.6625 89.1625 7.7875L84.4126 13.1125C84.1626 13.3625 83.8938 13.4812 83.6063 13.4688C83.3188 13.4563 83.0626 13.3375 82.8376 13.1125C82.6126 12.8875 82.5001 12.6188 82.5001 12.3063C82.5001 11.9938 82.6001 11.7375 82.8001 11.5375L85.9876 8.025Z" fill="#FFFCF8"/>
</svg>
